<svg width="527.532" height="445.431" viewBox="0 0 139.576 117.854" xmlns="http://www.w3.org/2000/svg">
  <path style="fill:#efabb0" d="m1969.93-248.563-10.22.391-7.599 2.557c-4.18 1.406-9.696 3.8-12.258 5.318-2.561 1.518-4.775 2.76-4.92 2.76-.144 0-2.135-1.262-4.425-2.803-5.773-3.885-11.724-5.48-18.735-5.02-7.662.503-12.696 3.143-18.199 9.544-12.212 14.203-14.325 15.718-23.293 16.703-5.986.657-8.57 2.254-8.57 5.299 0 1.031.729 2.605 1.62 3.496l1.618 1.619-3.674 2.18c-2.02 1.199-5.36 3.262-7.42 4.582l-3.744 2.4-.246 2.951-.246 2.951 2.014 1.32c1.373.9 2.786 1.148 4.445.784 1.338-.294 2.432-.371 2.432-.172s-.696 1.937-1.547 3.863c-4.689 10.611-1.904 23.409 7.105 32.658 4.933 5.065 9.806 7.37 15.018 7.1 2.104-.109 5.506-.122 7.562-.027l3.739.172-.42 5.798c-1.326 18.276 12.014 38 30.728 45.436 2.54 1.009 4.724 1.912 4.856 2.006.131.094-1.497 2.464-3.617 5.265-6.87 9.078-10.39 20.4-9.49 30.518.265 2.983.57 5.827.675 6.322.106.495-1.97 2.11-4.61 3.59-2.64 1.48-7.29 5.267-10.333 8.414l-5.533 5.72-4.329-2.335c-5.3-2.861-10.532-7.762-13.267-12.43-4.343-7.411-5.718-19.03-3.336-28.176 1.534-5.888 1.51-7.66-.125-9.466-1.891-2.09-4.859-1.8-9.629.935-8.697 4.988-17.584 15.891-21.05 25.824-2.155 6.175-2.951 17.658-1.655 23.9.516 2.488 2.32 6.804 4.006 9.593l3.066 5.07-1.508 1.916c-2.048 2.604-1.911 3.724.996 8.256 5.827 9.08 18.51 17.696 30.034 20.4l5.464 1.283V21.66h-36.636l-36.637.002-1.963 1.963c-2.36 2.36-2.487 4.413-.433 6.95l1.527 1.888 56.672.475v.002c31.169.261 92.13.351 135.47.2 43.34-.15 84.666-.274 91.836-.275l13.038-.002 1.962-1.963c2.579-2.578 2.525-5.481-.142-7.58l-2.11-1.656h-18.89l-18.893.002.274-4.844.271-4.843-2.103-4.305c-1.158-2.367-3.343-5.388-4.854-6.715l-2.748-2.412 1.233-3.441c1.845-5.154 1.612-15.576-.489-21.89-2.878-8.648-9.464-16.445-18.623-22.046l-4.428-2.707.438-8 .436-8-1.282-4.98c-1.7-6.605-5.19-13.351-9.34-18.055-1.86-2.11-3.248-3.958-3.084-4.108.165-.15 2.28-1.098 4.7-2.107 20-8.34 32.075-25.842 31.01-44.951l-.346-6.2h3.478c1.913 0 4.184-.44 5.047-.98l1.57-.98.979.98c3.745 3.745 17.117-4.103 21.445-12.588 4.32-8.468 4.99-19.017 1.627-25.61-2.19-4.293-2.086-4.603 1.574-4.603 4.03 0 5.616-1.312 5.616-4.646v-2.631l-2.58-2.17c-1.418-1.193-3.488-2.563-4.6-3.045-1.112-.482-3.38-1.75-5.039-2.818l-3.018-1.944 1.319-1.457c1.674-1.85 1.693-5.273.037-6.93-.769-.768-3.487-1.515-6.81-1.87-7.5-.802-12.643-3.54-17.44-9.29-11.635-13.943-16.475-17.017-26.785-17.017-6.537 0-11.78 1.64-16.887 5.285-2.091 1.493-4.006 2.715-4.256 2.715s-2.074-1.115-4.053-2.477c-8.856-6.093-22.623-9.152-38.47-8.548zm-6.22 10.647 9.6.04 9.6.038 6.365 1.793c3.5.986 8.796 3.07 11.768 4.631 5.404 2.84 19.664 14.906 24.002 20.309l2.273 2.832-.886 4.767c-.497 2.67-.731 9.168-.534 14.768l.352 10 1.72 4.746c2.04 5.624 5.852 12.16 9.766 16.744 1.554 1.82 3.325 4.391 3.936 5.711l1.111 2.398.322-1.398c.46-1.992 2.329-1.736 2.9.398.882 3.29.503 14.541-.634 18.813-1.588 5.967-4.469 10.483-9.88 15.494-10.297 9.533-24.103 14.576-45.665 16.684-7.726.755-22.493.9-28.916.285-18.122-1.737-27.951-4.082-36.969-8.82-6.234-3.277-12.886-8.795-12.11-10.05.289-.468.16-.625-.29-.347-1.145.708-3.72-2.34-2.984-3.531.37-.6.266-.768-.268-.438-.478.295-1.1.161-1.383-.297-.283-.458-.152-.732.29-.611.44.12 1.328-.488 1.972-1.352l1.17-1.568 1.248 1.035 1.248 1.035-1.262-3.209c-1.607-4.091-.957-7.722 2.15-12.011.428-.59.916-1.052 1.37-1.57-1.616-2.472.136-5.979 5.635-6.426.628-.052 1.259-.072 1.89-.07a30.95 30.95 0 0 1 1.89.066l.188.027c1.843-.784 3.967-1.601 6.533-2.518 17.73-6.332 23.733-10.701 26.176-19.05 1.423-4.861.96-9.3-1.463-14.08l-1.576-3.112 1.072-3.69c.59-2.028 1.043-6.423 1.006-9.767l-.068-6.08-2.453-5.242c-2.925-6.252-7.731-11.308-12.822-13.49l-3.713-1.59 2.361-1.91c3.358-2.715 11.033-6.35 17.993-8.524zm69.983 3.578c6.06 0 10.08 2.599 15.951 10.313 5.933 7.793 11.088 12.39 15.932 14.205 2.054.769 4.061 1.937 4.461 2.595 1.784 2.94 7.485 8.362 11.871 11.291 2.632 1.758 4.243 3.196 3.58 3.196-.663 0-1.415.543-1.67 1.207-.254.664-.743 1.146-1.086 1.07-.939-.21-5.303 1.051-6.28 1.815-.473.368-1.643.52-2.6.335-3.012-.58-1.898.71 2.26 2.618 4.646 2.132 6.408 4.868 6.382 9.916-.025 4.889-2.617 10.039-6.865 13.644l-1.656 1.404-.13-3.29c-.072-1.865-1.082-5.053-2.33-7.348l-2.202-4.055-.475 4.342c-.546 4.99-2.335 8.898-4.898 10.693-3.986 2.792-11.427.665-17.612-5.037-8.52-7.853-11.317-21.567-8.154-39.978l1.264-7.346-1.676-2.711c-.921-1.49-4.73-5.333-8.463-8.537-3.733-3.204-6.787-6.09-6.787-6.412 0-1.426 7.125-3.93 11.183-3.93zm-120.332.078c2.687-.176 5.494.37 8.432 1.633 3.8 1.635 5.016 3.777 1.832 3.229-.833-.144-3.708-.453-6.389-.686l-4.875-.424-2.617 1.352c-3.842 1.987-9.082 7.08-13.709 13.32-2.242 3.024-4.245 5.498-4.453 5.498-1.72 0 4.905-12.157 9.271-17.014 3.884-4.318 8.03-6.615 12.508-6.908zm22.094 11.922h3.127c3.973 0 3.938.808-.117 2.678-1.763.813-5.295 3.513-7.848 6s-5.445 5.602-6.428 6.922l-1.787 2.4.508-2.4c.865-4.075 4.301-9.083 8.516-12.414zm-51.63 12c.174 0-.377 1.35-1.227 3-1.964 3.81-5.739 7.384-11.104 10.516-4.152 2.424-8.183 3.9-8.183 2.996 0-.254 1.889-1.675 4.199-3.156 4.2-2.695 10.2-8.663 10.2-10.147 0-.636 4.902-3.209 6.114-3.209zm122.757 18.531c-7.434-.065-14.095 4.776-16.453 12.889l-1.332 4.58.918 4.416c1.137 5.479 4.776 10.42 9.521 12.924 8.409 4.438 19.288.762 23.649-7.988 4.816-9.666 1.034-20.507-8.742-25.059-2.52-1.173-5.083-1.74-7.561-1.762zm-69.148 3.87c2.456 0 6.677 4.03 6.677 6.376 0 2.319-2.055 6.12-3.636 6.727-4.698 1.803-9.965-1.55-9.965-6.342v-2.619l2.463-2.072c1.354-1.14 3.36-2.07 4.46-2.07zm66.172 0c3.28 0 6.24 3.137 6.341 6.724l.086 3.08-2.205 1.897c-2.412 2.074-5.863 2.466-7.927.898-1.383-1.05-2.99-4.657-2.99-6.713 0-1.953 4.474-5.887 6.695-5.887zm-29.913 22.39c-3.528.005-7.059.533-9.375 1.584-4.179 1.897-6.277 5.667-5.49 9.863.592 3.156 5.526 8.192 8.842 9.024l1.998.502-1.127 2.177c-1.775 3.433-7.248 7.914-10.383 8.502-4.102.77-8.321-.245-10.635-2.558l-2.01-2.008.9-.898c2.603-2.604-.444-6.979-4.862-6.979-4.377 0-6.446 7.788-3.555 13.379 2.737 5.293 9.125 9.007 15.514 9.018l2.601.004v3.746c0 7.597 6.456 15.587 13.715 16.972v.002c1.916.366 4.384.49 5.484.276 2.978-.58 8.927-3.267 10.684-4.826 2.327-2.066 5.299-8.986 5.309-12.356l.01-2.984 2.199-.451c11.583-2.378 17-7.137 17-14.934v-3.918l-1.963-1.963c-2.238-2.238-6.096-2.62-7.644-.754-.665.8-.839 2.437-.512 4.82l.494 3.608-2.586 1.578c-3.085 1.881-8.525 2.071-11.736.41-2.148-1.11-8.889-8.096-8.819-9.138.018-.269 1.81-1.322 3.983-2.34 9.392-4.405 10.091-13.816 1.322-17.797-2.302-1.045-5.827-1.565-9.355-1.56zm9.43 39.61.094 2.624c.052 1.445-.39 3.786-.982 5.202s-1.74 3.113-2.553 3.773l-1.477 1.2 1.8-2.46c.988-1.352 2.095-4.23 2.458-6.398zm-17.191 7.912c.21-.21.595.174.855.853.541 1.41.08 1.657-.709.381-.29-.47-.356-1.025-.146-1.234zm49.554 8.923c-.326.03-.884.173-1.593.42-1.42.495-2.582 1.07-2.582 1.276 0 .552 3.471-.59 4.382-1.444.215-.2.12-.282-.207-.252zm-37.328 5.963c-.194 0-.575.361-.847.801-.272.44-.113.8.353.8.466 0 .846-.36.846-.8 0-.44-.158-.8-.352-.8zm-9.447 1.871c-.55.222-.1.405 1 .405s1.55-.183 1-.405c-.55-.222-1.45-.222-2 0zm40.602 10.03 4.62 4.984c7.773 8.38 11.599 17.986 10.39 26.09l-.386 2.574-2.556-1.95c-3.346-2.55-7.846-4.398-10.719-4.398h-2.303l3.028 3.182c1.664 1.75 4.218 5.62 5.676 8.6l2.648 5.418-.076 12.4-.074 12.4-2.178 7.2C2013.92-3.286 2012.72-1.09 2008.78.994l-3.47 1.834 5.73.463 5.728.463 3.146 2.082c3.818 2.526 6.16 7.01 5.47 10.467-.818 4.085-2.578 5.36-7.397 5.36h-4.276v-3.2c0-3.402-2.101-6.4-4.486-6.4h-1.287l.623 2.199c.343 1.21.652 3.28.687 4.6l.062 2.4-3.078.254-3.078.252-2.922-3.35c-1.607-1.843-3.552-4.47-4.322-5.84l-1.398-2.49v-27.756l2.699-3.336c3.961-4.892 5.424-8.228 5.898-13.459.542-5.979-1.311-11.117-5.035-13.957-1.482-1.13-3.036-1.844-3.453-1.586-.418.258-.573 2.539-.346 5.068.467 5.193-.935 11.76-2.326 10.9-.55-.34-.658-.18-.285.423.345.558-.343 2.33-1.62 4.172-2.371 3.422-4.528 5.006-5.556 4.078-.348-.315-.384-.137-.078.396.354.616-.607 1.563-2.639 2.6-1.758.897-3.3 1.63-3.427 1.629-.128-.001-.32-2.325-.428-5.166-.213-5.618-2.428-13.341-3.967-13.832-1.222-.39-3.172 6.422-3.885 13.574l-.535 5.373-2.308-1.193c-1.27-.657-2.31-1.387-2.31-1.621 0-.235.322-.228.716.015 1.164.72 1.682-1.754.562-2.683-.564-.469-1.221-.653-1.462-.413-.241.241-2.46-1.943-4.928-4.853-2.469-2.91-4.489-4.931-4.489-4.492 0 .439.368 1.024.815 1.3.447.277.6.848.34 1.268-.26.42 0 .666.586.545.586-.122 1.012.402.951 1.172-.061.779.256 1.163.723.875.458-.283.597-.132.308.336s.48 1.699 1.711 2.734c3.251 2.736 4.043 4.41 1.033 2.186-3.237-2.393-7.031-8.08-8.14-12.2-.489-1.813-.621-5.173-.31-7.847l.54-4.676h-1.383c-3.378 0-8.373 8.201-8.373 13.748 0 3.935 2.468 9.964 5.992 14.637l3.608 4.783v13.363c0 7.35-.372 14.343-.826 15.537-.454 1.195-2.288 3.917-4.075 6.051l-3.248 3.881h-6.252l-.094-1.4c-.123-1.832-.136-1.725.512-5.2l.56-3h-2.06c-2.54 0-3.719 2.009-3.719 6.348v3.252h-8.683l-1.658-2.107c-3.484-4.429-1.126-11.428 4.892-14.528 2.43-1.25 5.134-1.877 8.506-1.97 2.72-.076 4.943-.237 4.943-.36 0-.122-1.341-.855-2.98-1.629l-2.978-1.406-2.258-4.562c-3.471-7.017-6.302-19.02-6.77-28.7l-.408-8.46 1.36-4.739c1.558-5.432 4.222-10.332 7.886-14.506l2.549-2.9-3.485.557c-3.98.636-7.66 2.332-10.423 4.804l-1.909 1.705.436-6.63.434-6.633 2.798-5.895c1.863-3.922 4.32-7.402 7.346-10.404l4.547-4.512 6.527 1.34c4.538.932 12.137 1.453 24.928 1.709l18.4.37 10.4-1.722zm-65.202 5.584-1.4.265-1.4.266-.237 4.021-.234 4.022 1.853 2.752c1.02 1.514 3.07 3.57 4.555 4.57 3.81 2.568 4.482 2.261 2.045-.933-2.468-3.236-5.182-10-5.182-12.914zm59.313.316.049 2.1c.057 2.422-1.386 5.897-5.004 12.047l-2.559 4.347 3.819-2.748c6.268-4.51 8.104-8.349 6.433-13.447-.43-1.314-.35-1.73.262-1.352.487.301.887.212.887-.199 0-.41-.875-.748-1.944-.748zm-145.313 16.2.254 2.208c.14 1.22-.713 4.253-1.906 6.776-1.188 2.51-2.517 5.656-2.953 6.99-.437 1.334-1.02 5.486-1.295 9.226l-.5 6.8-1.113-2.637c-2.556-6.06-.283-18.132 4.79-25.442zm57.12 28.357.402 2.62c.222 1.443.623 5.324.892 8.624.555 6.804 2.41 15.706 4.13 19.822l1.161 2.777-2.254-.7c-1.238-.386-5.53-.7-9.539-.7h-7.287l.637-2.215c.384-1.338.339-2.033-.113-1.754-.412.255-.75 1.094-.75 1.864s-.497 2.081-1.106 2.914l-1.107 1.511-1.02-4.56-1.021-4.56 1.021-4.6c.562-2.53 1.733-6 2.602-7.713 1.909-3.763 7.59-9.956 10.924-11.908zm117.027 0 3.726 2.672c4.728 3.39 9.326 9.428 11.1 14.572 1.492 4.324 1.85 14.297.559 15.588-.506.505-1.881.475-3.914-.086-1.724-.476-5.494-.687-8.377-.469-2.883.218-6.112.673-7.176 1.01l-1.936.613.653-1.53c1.483-3.478 4.438-18.812 4.884-25.349zm-165.246.443 5.754 5.315c3.774 3.485 7.545 6.094 10.95 7.578 3.5 1.524 5.194 2.712 5.194 3.638 0 2.28-.956 2.201-6.68-.545-6.511-3.124-9.947-6.262-12.98-11.857zm122.013 8.955c-.39-.165-1.222.16-2.32 1.049-1.104.894-1.61 1.946-1.31 2.727.268.698.668 1.27.888 1.27.22 0 .196-.529-.053-1.175-.248-.646-.137-1.368.246-1.605.384-.237.82-.064.969.383.15.447.712.106 1.252-.758.668-1.07.719-1.726.328-1.89zm-5.19 3.799c-.202.07-.423.262-.612.56-.379.598-.69.798-.7.446-.022-1.135-2.685.818-2.875 2.107l-.183 1.246 2.656-1.74c1.46-.957 2.46-2.058 2.223-2.443-.12-.193-.305-.246-.508-.176zm-14.948 1.646-.776 1.2c-.426.66-.779 1.47-.789 1.8-.01.33.35.6.79.6.44 0 .796-.81.786-1.8zm14.351 15.708.237 13.546.236 13.547h-9.4l-9.4-.002v-27.049l1.661.434c.914.24 1.966 1.237 2.338 2.217.741 1.95 2.321 2.799 5.201 2.799 2.881 0 4.399-.83 4.399-2.407 0-.871.93-1.761 2.365-2.261zm52.465 11.85c4.596.104 10.77 2.008 14.649 4.817 4.172 3.023 6.074 6.571 5.482 10.221-.587 3.619-1.839 5.004-4.518 5.004h-2.197l-.426-3.767c-.427-3.79-2.95-7.068-4.904-6.374-.954.34-.933 1.083.149 5.34.39 1.54.559 3.251.375 3.801-.213.634-1.907 1-4.631 1h-4.295l.447-3.8c.559-4.734-.758-9.804-3.344-12.878l-1.978-2.351 1.265-.487c1.038-.398 2.394-.562 3.926-.527zm-124.648.288c1.571-.094 3.026-.054 4.224.149l3.18.537-2.758 2.84c-3.08 3.171-3.972 6.384-3.406 12.273l.38 3.955H1903.31v-2.621c0-1.442.561-3.424 1.247-4.402 2.254-3.22-.39-4.574-3.7-1.895-1.338 1.084-1.875 2.43-1.996 5l-.166 3.518-2.416.246c-1.78.18-2.75-.234-3.691-1.578-2.894-4.132-.596-10.812 4.924-14.313 3.059-1.94 8.828-3.428 13.543-3.709zm251.24 19.711-1.879 1.233c-2.563 1.679-3.21 4.72-1.545 7.261l1.336 2.04 2.945-.245 2.948-.246 1.013-2.127c1.343-2.816.122-6.038-2.695-7.11zm-409.701.135c-.89.009-1.859.53-3.176 1.566-3.18 2.502-2.85 6.577.693 8.586 2.151 1.22 2.271 1.2 4.692-.703 2.579-2.028 2.81-5.64.507-7.941-1.013-1.014-1.826-1.517-2.716-1.508zm27.508.428c-1.559.085-3.08.978-3.973 2.646-1.276 2.384-.983 3.943 1.144 6.07 2.382 2.382 3.926 2.475 6.038.364 1.59-1.592 2.11-5.201.988-6.881-1.043-1.562-2.639-2.284-4.197-2.2zm353.681.357a4.897 4.897 0 0 0-2.61 1.246c-1.794 1.624-1.902 5.322-.204 7.02 2.826 2.826 8.342.575 8.342-3.405 0-3.209-2.793-5.25-5.528-4.861zm64.035 30.322c-24.774 0-44.908 20.086-44.908 44.801 0 11.649 3.89 21.03 12.639 30.479l5.156 5.57 6.504 3.094c3.577 1.701 8.44 3.538 10.81 4.082 5.773 1.323 16.136.594 21.66-1.524l4.37-1.676 2.031 1.942c1.117 1.068 2.931 2.29 4.031 2.717 4.013 1.556 9.022-.88 11.399-5.541l1.398-2.743v-34.4l-1.398-2.744c-.77-1.509-2.414-3.487-3.655-4.398l-2.255-1.659-12.545-.26c-16.208-.335-18.929.087-22.295 3.454l-2.649 2.646v3.358c0 7.513 4.222 10.625 15.2 11.203l7.6.4.241 1.693c.36 2.516-3.84 5.627-9.056 6.71-7.306 1.516-15.716-1.058-21.123-6.465-11.433-11.434-7.653-31.235 7.238-37.918l4.943-2.22 4.895.393c3.05.245 6.459 1.187 9.05 2.5 2.83 1.434 5.426 2.108 8.124 2.108h3.964l2.409-2.027c1.324-1.115 2.82-3.274 3.324-4.8l.914-2.775-.906-2.746c-2.431-7.365-14.475-13.254-27.11-13.254zm-99.273.032c-20.322-.803-37.509 10.942-44.588 31.298l-2.039 5.866.41 8.002c.659 12.853 4.804 21.952 14.326 31.445 5.38 5.363 11.619 8.93 19.057 10.892 2.42.639 7.114 1.184 10.432 1.213 23.166.203 42.651-18.344 44.49-42.347.616-8.044-.662-14.309-4.486-22-6.009-12.083-16.636-20.685-28.721-23.246a52.882 52.882 0 0 0-8.881-1.123zm-254.55.43c-2.994.124-5.837 1.556-7.655 4.257l-1.83 2.719v23.988c0 26.087-.348 28.8-4.195 32.649-5.964 5.963-16.19 4.188-20.42-3.545l-1.385-2.53L1808.11 85l-.4-25.863-2.988-2.739-2.989-2.736h-3.652c-4.313 0-7.616 1.527-9.488 4.385-1.91 2.913-2.329 13.495-1.512 38.016l.68 20.4 2.529 5.392c4.207 8.97 12.52 16.02 21.84 18.524 16.943 4.553 34.366-4.083 40.986-20.317l1.793-4.4V59.37l-2.361-2.467c-2.418-2.524-5.562-3.705-8.555-3.58zm-129.298.202-2.486 1.286c-1.367.706-3.054 2.152-3.75 3.214l-1.266 1.932.084 37.72.084 37.721 1.34 2.045c.737 1.124 2.433 2.711 3.772 3.528 5.167 3.15 11.567 1.168 14.078-4.362l1.52-3.347.016-8.516.018-8.516 9.4-.343 9.401-.346 4.627-1.807c6.458-2.522 13.415-9.132 16.76-15.927l2.613-5.31-.055-7.218-.053-7.217-1.814-4.628c-2.531-6.458-9.147-13.416-15.932-16.758l-5.304-2.614-16.527-.269zm168.701.02-2.78 1.32c-1.932.917-3.17 2.285-4.046 4.475l-1.262 3.154v70.336l1.276 3.184c.721 1.803 2.368 3.886 3.799 4.802v.002c5.154 3.302 12.183 1.085 15.125-4.771l1.398-2.785v-17.2l7.801-.01c4.29-.004 9.654-.504 11.92-1.107 28.56-7.604 31.47-45.54 4.473-58.328l-5.393-2.555-16.156-.26zm92.313.045-2.8 1.435c-1.564.802-3.424 2.674-4.212 4.237l-1.412 2.8.213 36.516.21 36.518 1.6 1.797c.88.988 2.68 2.465 4 3.28l2.4 1.483 13.2-.006c14.632-.007 18.643-.729 27.164-4.883 3.616-1.762 7.095-4.432 11.242-8.628 7.342-7.429 10.85-14.082 12.516-23.737l1.164-6.74-.824-5.922c-2.274-16.351-12.73-29.707-28.06-35.844l-4.401-1.761-16-.274zm131.424 15.707c2.526-.319 5.31 1.39 6.47 4.773l1.096 3.192-.898 3.297c-.494 1.812-1.643 4.24-2.553 5.398-2.956 3.757-9.599 2.11-9.508-2.357.021-1.047.393-.708 1.162 1.062l1.13 2.6 2.638-.026c3.066-.029 4.85-2.018 6.154-6.86 1.633-6.064-1.297-11.25-5.705-10.097-1.86.487-4.611 3.973-4.611 5.844 0 .795-.337 1.654-.748 1.908-.875.54.098-3.259 1.51-5.896.923-1.727 2.347-2.647 3.863-2.838zm-22.344.527c3.782.327 5.87 3.288 6.191 8.778l.25 4.26-.675-4.208c-.944-5.894-2.617-8.191-5.967-8.191-3.495 0-4.678 1.556-5.106 6.717-.571 6.89 2.903 11.637 7.701 10.525l2.126-.492-1.2.812c-5.132 3.473-10.52-3.474-9.367-12.076.593-4.423 2.571-6.425 6.047-6.125zm-96.68 4.447 7.399.348c8.457.397 11.98 1.82 16.761 6.776 4.394 4.552 6.54 9.975 6.502 16.423l-.03 5.354-2.165 4.426c-2.558 5.228-7.236 9.494-12.302 11.22-2.077.708-6.348 1.244-9.909 1.244h-6.256V97.166Zm-260 .192h6.026c7.038 0 10.422 1.198 13.412 4.752 3.979 4.729 1.99 12.463-3.83 14.894-2.61 1.09-12.412 1.51-14.608.623-.724-.292-1-3.14-1-10.337zm169.2.398 6.814.014 6.814.014 2.598 1.85c6.413 4.566 6.56 14.05.264 16.92-1.125.512-5.195 1.134-9.047 1.384l-7.004.453-.447-1.166c-.246-.641-.344-5.283-.219-10.316zm192.638 8.883c.151-.15.293-.09.393.21.192.576-.031 1.429-.496 1.894-.594.593-.698.281-.35-1.05.142-.54.302-.903.453-1.054zm-23.799 2.719c4.6 0 9.961 6.331 9.961 11.764v3.394l-2.2 1.094c-1.355.673-2.97.865-4.2.5l-2-.594 2.84-.08c3.426-.096 4.76-1.27 4.76-4.188 0-6.767-7.477-13.26-11.293-9.806-1.844 1.668-1.977 5.886-.288 9.154.672 1.298 1.043 2.361.823 2.361-.971 0-2.842-4.976-2.842-7.56 0-3.013 2.225-6.04 4.44-6.04zm60.264 0c3.797 0 5.474 6.216 2.979 11.04-.615 1.19-1.965 2.879-3 3.755l-1.883 1.594 1.7-1.997c.936-1.096 2.106-2.779 2.6-3.74 1.282-2.488 1.123-7.872-.267-9.025-1.516-1.258-5.298-.425-8.195 1.806-1.643 1.266-1.934 1.342-1.096.291 1.454-1.822 5.113-3.724 7.162-3.724zm-8.27 6.144c.11-.068.079.148-.107.655-1.178 3.225-1.275 7.281-.193 8.18.59.489 2.333 1.04 3.87 1.226l2.796.338-3.371.129-3.371.127-.828-1.547c-1.177-2.198-.978-5.717.455-8.053.388-.633.64-.986.75-1.055zm-21.802 3.487c3.797-.11 7.675 1.217 10.355 4.021.763.798 2.832 3.687 4.6 6.422l3.213 4.973v7.824l-1.963 1.965-1.963 1.963-3.438-.012c-1.89-.007-3.901-.307-4.47-.668-.578-.366.874-.499 3.285-.299l4.32.358 1.715-1.84c1.218-1.307 1.715-2.867 1.715-5.385v-3.545l-2.74-4.504c-4.644-7.631-8.535-10.509-14.207-10.502-5.04.006-8.877 2.71-13.5 9.508l-3.954 5.813v3.84c0 4.614 1.127 5.78 6.292 6.503l3.709.52-3.622.105c-6.3.186-8.56-2.941-7.035-9.734.685-3.049 2.639-6.227 7.819-12.717 2.355-2.95 6.072-4.499 9.869-4.61zm3.449 24.799c.778.033 1.219.116 1.053.263-.184.162-2.854.478-5.934.703-3.204.235-4.915.132-4-.238 1.167-.472 6.546-.828 8.881-.728zm-171.57 40.421-1.657 1.498-1.654 1.499v21.509l1.313 2.766c1.558 3.285 5.214 6.235 9.087 7.336 1.54.437 3.34.826 4 .863 2.663.15 7.733-1.794 9.899-3.797 3.838-3.549 4.502-6.21 4.502-18.054v-10.782l-1.692-1.183c-.93-.652-2.28-.983-3-.735-2.846.983-3.308 2.759-3.308 12.723v9.79l-2.108 1.657c-2.632 2.07-5.941 2.122-8.404.131l-1.889-1.525-.4-10.647-.4-10.644-2.145-1.203zm96.69.164-2 1.311-2 1.31v14.63c0 14.89.31 16.583 3.2 17.55.66.221 1.92-.052 2.8-.605l1.599-1.006.218-15.273.217-15.274-2.017-1.322zm-173.509.64c-3.146.2-6.233 1.527-8.642 3.937l-2.649 2.646v7.336l2.2 2.404c1.585 1.733 3.653 2.767 7.4 3.7 7.242 1.801 8.458 2.95 5.87 5.539-1.65 1.65-4.935 1.121-8.243-1.325l-2.36-1.744-2.634.752c-1.712.489-2.716 1.32-2.87 2.373-.334 2.301 2.753 5.874 6.575 7.61 4.329 1.966 7.38 1.892 11.685-.284 6.805-3.437 9.115-10.173 5.12-14.921-1.503-1.786-3.604-2.901-7.8-4.137-6.54-1.926-7.197-2.352-6.482-4.215.81-2.112 4.223-2.553 7.23-.934l2.651 1.428 2.03-1.328c2.607-1.709 2.578-3.944-.077-6.033a13.152 13.152 0 0 0-9.004-2.805zm211.502.07c-.887.06-1.792.181-2.713.367l-4.32.87-3.72 3.721c-6.161 6.161-7.108 13.205-2.778 20.665 2.156 3.713 5.133 6.126 9.703 7.867 6.612 2.518 15.255-.792 19.553-7.487l2.394-3.728-.265-5.684-.266-5.681-2.303-3.323c-3.728-5.38-9.071-8.008-15.285-7.588zm-180.394.275-1.6 1.6c-1.946 1.946-2.006 3.025-.275 4.937.968 1.07 2.473 1.463 5.6 1.463h4.275v23.2l1.601 1.599c1.926 1.926 2.333 1.958 4.621.355l1.778-1.246v-23.908h3.654c4.826 0 6.746-1.103 6.746-3.87 0-3.853-.954-4.13-14.16-4.13zm98.4.15-7.6.248-.216 15.498c-.151 10.754.062 15.834.697 16.6 1.325 1.596 14.227 1.498 18.145-.139 11.854-4.951 14.566-20.565 4.974-28.636-3.563-2.999-7.393-3.853-16-3.57zm0 7.85h8.16l2.721 2.719 2.719 2.72v3.102c0 3.815-1.767 6.476-5.278 7.943-1.468.614-3.942 1.115-5.496 1.115h-2.826v-8.8zm81.91.127c2.159-.268 4.502.3 6.582 1.887 5.12 3.905 4.183 11.982-1.674 14.43-3.529 1.474-4.222 1.45-7.607-.247-3.551-1.78-4.978-4.514-4.49-8.598.508-4.255 3.592-7.026 7.19-7.472zm-260.273 4.635-46.883.218-46.883.22-1.135 1.552c-1.465 2.004-1.434 3.235.122 4.79l1.257 1.257H1804.654l.928-2.037.928-2.036-1.983-1.982zm378.15.095c-24.771.028-49.534.297-50.762.778-2.146.84-3.2 4.306-1.816 5.974l.988 1.19h102.967l1.236-1.887c1.52-2.32.828-4.39-1.804-5.39-1.258-.479-26.038-.692-50.809-.665z" transform="matrix(.26458 0 0 .26458 -451.53 65.785)"/>
  <path style="fill:#64e3f6" d="m1969.93-248.563-10.22.391-7.599 2.557c-4.18 1.406-9.696 3.8-12.258 5.318-2.561 1.518-4.775 2.76-4.92 2.76-.144 0-2.135-1.262-4.425-2.803-5.773-3.885-11.724-5.48-18.735-5.02-7.662.503-12.696 3.143-18.199 9.544-12.212 14.203-14.325 15.718-23.293 16.703-5.986.657-8.57 2.254-8.57 5.299 0 1.031.729 2.605 1.62 3.496l1.618 1.619-3.674 2.18c-2.02 1.199-5.36 3.262-7.42 4.582l-3.744 2.4-.246 2.951-.246 2.951 2.014 1.32c1.373.9 2.786 1.148 4.445.784 1.338-.294 2.432-.371 2.432-.172s-.696 1.937-1.547 3.863c-4.689 10.611-1.904 23.409 7.105 32.658 4.933 5.065 9.806 7.37 15.018 7.1 2.104-.109 5.506-.122 7.562-.027l3.739.172-.42 5.798c-1.326 18.276 12.014 38 30.728 45.436 2.54 1.009 4.724 1.912 4.856 2.006.131.094-1.497 2.464-3.617 5.265-6.87 9.078-10.39 20.4-9.49 30.518.265 2.983.57 5.827.675 6.322.106.495-1.97 2.11-4.61 3.59-2.64 1.48-7.29 5.267-10.333 8.414l-5.533 5.72-4.329-2.335c-5.3-2.861-10.532-7.762-13.267-12.43-4.343-7.411-5.718-19.03-3.336-28.176 1.534-5.888 1.51-7.66-.125-9.466-1.891-2.09-4.859-1.8-9.629.935-8.697 4.988-17.584 15.891-21.05 25.824-2.156 6.175-2.951 17.658-1.655 23.9.516 2.488 2.32 6.804 4.006 9.593l3.066 5.07-1.508 1.916c-2.048 2.604-1.911 3.724.996 8.256 5.827 9.08 18.51 17.696 30.034 20.4l5.464 1.283V21.66h-36.636l-36.637.002-1.963 1.963c-2.36 2.36-2.487 4.413-.433 6.95l1.527 1.888 56.672.475v.002c31.169.261 92.13.351 135.47.2 43.34-.15 84.666-.274 91.836-.275l13.038-.002 1.962-1.963c2.579-2.578 2.525-5.481-.142-7.58l-2.11-1.656h-18.89l-18.893.002.274-4.844.271-4.843-2.103-4.305c-1.158-2.367-3.343-5.388-4.854-6.715l-2.748-2.412 1.233-3.441c1.845-5.154 1.612-15.575-.489-21.89-2.878-8.648-9.464-16.445-18.623-22.046l-4.428-2.707.438-8 .436-8-1.282-4.98c-1.7-6.605-5.19-13.351-9.34-18.055-1.86-2.11-3.248-3.958-3.084-4.108.165-.15 2.28-1.098 4.7-2.107 20-8.34 32.075-25.842 31.01-44.951l-.346-6.2h3.478c1.913 0 4.184-.44 5.047-.98l1.57-.98.979.98c3.745 3.745 17.117-4.103 21.445-12.588 4.32-8.468 4.99-19.017 1.627-25.61-2.19-4.293-2.086-4.603 1.574-4.603 4.03 0 5.616-1.312 5.616-4.646v-2.631l-2.58-2.17c-1.418-1.193-3.488-2.563-4.6-3.045-1.112-.482-3.38-1.75-5.039-2.818l-3.018-1.944 1.319-1.457c1.674-1.85 1.693-5.273.037-6.93-.769-.768-3.487-1.515-6.81-1.87-7.5-.802-12.643-3.54-17.44-9.29-11.635-13.943-16.475-17.017-26.785-17.017-6.537 0-11.78 1.64-16.887 5.285-2.091 1.493-4.006 2.715-4.256 2.715s-2.074-1.115-4.053-2.477c-8.856-6.093-22.623-9.152-38.47-8.548zm-6.22 10.647 9.6.04 9.6.038 6.365 1.793c3.5.986 8.796 3.07 11.768 4.631 5.404 2.84 19.664 14.906 24.002 20.309l2.273 2.832-.886 4.767c-.497 2.67-.731 9.168-.534 14.768l.352 10 1.72 4.746c2.04 5.624 5.852 12.16 9.766 16.744 1.554 1.82 3.325 4.391 3.936 5.711l1.111 2.398.322-1.398c.46-1.992 2.329-1.736 2.9.398.882 3.29.503 14.541-.634 18.813-1.588 5.967-4.469 10.483-9.88 15.494-10.297 9.533-24.103 14.576-45.665 16.684-7.726.755-22.493.9-28.916.285-18.122-1.737-27.951-4.082-36.969-8.82-6.234-3.277-12.886-8.795-12.11-10.05.289-.468.16-.625-.29-.347-1.145.708-3.72-2.34-2.984-3.531.37-.6.266-.768-.268-.438-.478.295-1.1.161-1.383-.297-.283-.458-.152-.732.29-.611.44.12 1.328-.488 1.972-1.352l1.17-1.568 1.248 1.035 1.248 1.035-1.262-3.209c-1.607-4.091-.957-7.722 2.15-12.011.427-.59.917-1.052 1.37-1.57-1.616-2.472.136-5.979 5.635-6.426.628-.052 1.259-.072 1.89-.07a30.95 30.95 0 0 1 1.89.066l.188.027c1.843-.784 3.967-1.601 6.533-2.518 17.73-6.332 23.733-10.701 26.176-19.05 1.423-4.861.96-9.3-1.463-14.08l-1.576-3.112 1.072-3.69c.59-2.028 1.043-6.423 1.006-9.767l-.068-6.08-2.453-5.242c-2.925-6.252-7.731-11.308-12.822-13.49l-3.713-1.59 2.361-1.91c3.358-2.715 11.033-6.35 17.993-8.524zm69.983 3.578c6.06 0 10.08 2.599 15.951 10.313 5.933 7.793 11.088 12.39 15.932 14.205 2.054.769 4.061 1.937 4.461 2.595 1.784 2.94 7.485 8.362 11.871 11.291 2.632 1.758 4.243 3.196 3.58 3.196-.663 0-1.415.543-1.67 1.207-.254.664-.743 1.146-1.086 1.07-.939-.21-5.303 1.051-6.28 1.815-.473.368-1.643.52-2.6.335-3.012-.58-1.898.71 2.26 2.618 4.646 2.132 6.408 4.868 6.382 9.916-.025 4.889-2.617 10.039-6.865 13.644l-1.656 1.404-.13-3.29c-.072-1.865-1.082-5.053-2.33-7.348l-2.202-4.055-.475 4.342c-.546 4.99-2.335 8.898-4.898 10.693-3.986 2.792-11.427.665-17.612-5.037-8.52-7.853-11.317-21.567-8.154-39.978l1.264-7.346-1.676-2.711c-.921-1.49-4.73-5.333-8.463-8.537-3.733-3.204-6.787-6.09-6.787-6.412 0-1.426 7.125-3.93 11.183-3.93zm-120.332.078c2.687-.176 5.494.37 8.432 1.633 3.8 1.635 5.016 3.777 1.832 3.229-.833-.144-3.708-.453-6.389-.686l-4.875-.424-2.617 1.352c-3.842 1.987-9.082 7.08-13.709 13.32-2.242 3.024-4.245 5.498-4.453 5.498-1.72 0 4.905-12.157 9.271-17.014 3.884-4.318 8.03-6.615 12.508-6.908zm22.094 11.922h3.127c3.973 0 3.938.808-.117 2.678-1.763.813-5.295 3.513-7.848 6s-5.445 5.602-6.428 6.922l-1.787 2.4.508-2.4c.865-4.075 4.301-9.083 8.516-12.414zm-51.63 12c.174 0-.377 1.35-1.227 3-1.964 3.81-5.739 7.384-11.104 10.516-4.152 2.424-8.183 3.9-8.183 2.996 0-.254 1.889-1.675 4.199-3.156 4.2-2.695 10.2-8.663 10.2-10.147 0-.636 4.902-3.209 6.114-3.209zm122.757 18.531c-7.434-.065-14.095 4.776-16.453 12.889l-1.332 4.58.918 4.416c1.137 5.479 4.776 10.42 9.521 12.924 8.409 4.438 19.288.762 23.649-7.988 4.816-9.666 1.034-20.507-8.742-25.059-2.52-1.173-5.083-1.74-7.561-1.762zm-69.148 3.87c2.456 0 6.677 4.03 6.677 6.376 0 2.319-2.055 6.12-3.636 6.727-4.698 1.803-9.965-1.55-9.965-6.342v-2.619l2.463-2.072c1.354-1.14 3.36-2.07 4.46-2.07zm66.172 0c3.28 0 6.24 3.137 6.341 6.724l.086 3.08-2.205 1.897c-2.412 2.074-5.863 2.466-7.927.898-1.383-1.05-2.99-4.657-2.99-6.713 0-1.953 4.474-5.887 6.695-5.887zm-29.913 22.39c-3.528.005-7.059.533-9.375 1.584-4.179 1.897-6.277 5.667-5.49 9.863.592 3.156 5.526 8.192 8.842 9.024l1.998.502-1.127 2.177c-1.775 3.433-7.248 7.914-10.383 8.502-4.102.77-8.321-.245-10.635-2.558l-2.01-2.008.9-.898c2.603-2.604-.444-6.979-4.862-6.979-4.377 0-6.446 7.788-3.555 13.379 2.737 5.293 9.125 9.007 15.514 9.018l2.601.004v3.746c0 7.597 6.456 15.587 13.715 16.972v.002c1.916.366 4.384.49 5.484.276 2.978-.58 8.927-3.267 10.684-4.826 2.327-2.066 5.299-8.986 5.309-12.356l.01-2.984 2.199-.451c11.583-2.378 17-7.137 17-14.934v-3.918l-1.963-1.963c-2.238-2.238-6.096-2.62-7.644-.754-.665.8-.839 2.437-.512 4.82l.494 3.608-2.586 1.578c-3.085 1.881-8.525 2.071-11.736.41-2.148-1.11-8.889-8.096-8.819-9.138.018-.269 1.81-1.322 3.983-2.34 9.392-4.405 10.091-13.816 1.322-17.797-2.302-1.045-5.827-1.565-9.355-1.56zm-1.982 35.137.238 4.836c.324 6.58 2.13 6.621 3.418.076l.936-4.762 1.18 1.18c.648.649 2.225 1.72 3.503 2.38l2.324 1.204v2.404c0 3.067-1.72 7.145-3.79 8.988-2.197 1.955-6.48 2.418-9.557 1.034-3.109-1.399-5.053-4.921-5.053-9.159v-3.171l3.4-2.504zm43.775 21.308c-.326.03-.884.173-1.593.42-1.42.495-2.582 1.07-2.582 1.276 0 .552 3.471-.59 4.382-1.444.215-.2.12-.282-.207-.252zm-37.328 5.963c-.194 0-.575.361-.847.801-.272.44-.113.8.353.8.466 0 .846-.36.846-.8 0-.44-.158-.8-.352-.8zm-9.447 1.871c-.55.222-.1.405 1 .405s1.55-.183 1-.405c-.55-.222-1.45-.222-2 0zm40.602 10.03 4.62 4.984c7.773 8.38 11.599 17.986 10.39 26.09l-.386 2.574-2.556-1.95c-3.346-2.55-7.846-4.398-10.719-4.398h-2.303l3.028 3.182c1.664 1.75 4.218 5.62 5.676 8.6l2.648 5.418-.076 12.4-.074 12.4-2.178 7.2C2013.92-3.286 2012.72-1.09 2008.78.994l-3.47 1.834 5.73.463 5.728.463 3.146 2.082c3.818 2.526 6.16 7.01 5.47 10.467-.818 4.085-2.578 5.36-7.397 5.36h-4.276v-3.2c0-3.402-2.101-6.4-4.486-6.4h-1.287l.623 2.199c.343 1.21.652 3.28.687 4.6l.062 2.4-3.078.254-3.078.252-2.922-3.35c-1.607-1.843-3.552-4.47-4.322-5.84l-1.398-2.49v-27.756l2.699-3.336c3.961-4.892 5.424-8.228 5.898-13.459.542-5.979-1.311-11.117-5.035-13.957-1.482-1.13-3.036-1.844-3.453-1.586-.418.258-.573 2.539-.346 5.068.467 5.193-.935 11.76-2.326 10.9-.55-.34-.658-.18-.285.423.345.558-.343 2.33-1.62 4.172-2.371 3.422-4.528 5.006-5.556 4.078-.348-.315-.384-.137-.078.396.354.616-.607 1.563-2.639 2.6-1.758.897-3.3 1.63-3.427 1.629-.128-.001-.32-2.325-.428-5.166-.213-5.618-2.428-13.341-3.967-13.832-1.222-.39-3.172 6.422-3.885 13.574l-.535 5.373-2.308-1.193c-1.27-.657-2.31-1.387-2.31-1.621 0-.235.322-.228.716.015 1.164.72 1.682-1.754.562-2.683-.564-.469-1.221-.653-1.462-.413-.241.241-2.46-1.943-4.928-4.853-2.469-2.91-4.489-4.931-4.489-4.492 0 .439.368 1.024.815 1.3.447.277.6.848.34 1.268-.26.42 0 .666.586.545.586-.122 1.012.402.951 1.172-.061.779.256 1.163.723.875.458-.283.597-.132.308.336s.48 1.699 1.711 2.734c3.251 2.736 4.043 4.41 1.033 2.186-3.237-2.393-7.031-8.08-8.14-12.2-.489-1.813-.621-5.173-.31-7.847l.54-4.676h-1.383c-3.378 0-8.373 8.201-8.373 13.748 0 3.935 2.468 9.964 5.992 14.637l3.608 4.783v13.363c0 7.35-.372 14.343-.826 15.537-.454 1.195-2.288 3.917-4.075 6.051l-3.248 3.881h-6.252l-.094-1.4c-.123-1.832-.136-1.725.512-5.2l.56-3h-2.06c-2.54 0-3.719 2.009-3.719 6.348v3.252h-8.683l-1.658-2.107c-3.484-4.429-1.126-11.428 4.892-14.528 2.43-1.25 5.134-1.877 8.506-1.97 2.72-.076 4.943-.237 4.943-.36 0-.122-1.341-.855-2.98-1.629l-2.978-1.406-2.258-4.562c-3.471-7.017-6.302-19.02-6.77-28.7l-.408-8.46 1.36-4.739c1.558-5.432 4.222-10.332 7.886-14.506l2.549-2.9-3.485.557c-3.98.636-7.66 2.332-10.423 4.804l-1.909 1.705.436-6.63.434-6.633 2.798-5.895c1.863-3.922 4.32-7.402 7.346-10.404l4.547-4.512 6.527 1.34c4.538.932 12.137 1.453 24.928 1.709l18.4.37 10.4-1.722zm-65.202 5.584-1.4.265-1.4.266-.237 4.021-.234 4.022 1.853 2.752c1.02 1.514 3.07 3.57 4.555 4.57 3.81 2.568 4.482 2.261 2.045-.933-2.468-3.236-5.182-10-5.182-12.914zm59.313.316.049 2.1c.057 2.422-1.386 5.897-5.004 12.047l-2.559 4.347 3.819-2.748c6.268-4.51 8.104-8.349 6.433-13.447-.43-1.314-.35-1.73.262-1.352.487.301.887.212.887-.199 0-.41-.875-.748-1.944-.748zm-145.313 16.2.254 2.208c.14 1.22-.713 4.253-1.906 6.776-1.188 2.51-2.517 5.656-2.953 6.99-.437 1.334-1.02 5.486-1.295 9.226l-.5 6.8-1.113-2.637c-2.556-6.06-.283-18.132 4.79-25.442zm57.12 28.357.402 2.62c.222 1.443.623 5.324.892 8.624.555 6.804 2.41 15.706 4.13 19.822l1.161 2.777-2.254-.7c-1.238-.386-5.53-.7-9.539-.7h-7.287l.637-2.215c.384-1.338.339-2.033-.113-1.754-.412.255-.75 1.094-.75 1.864s-.497 2.081-1.106 2.914l-1.107 1.511-1.02-4.56-1.021-4.56 1.021-4.6c.562-2.53 1.733-6 2.602-7.713 1.909-3.763 7.59-9.956 10.924-11.908zm117.027 0 3.726 2.672c4.728 3.39 9.326 9.428 11.1 14.572 1.492 4.324 1.85 14.297.559 15.588-.506.505-1.881.475-3.914-.086-1.724-.476-5.494-.687-8.377-.469-2.883.218-6.112.673-7.176 1.01l-1.936.613.653-1.53c1.483-3.478 4.438-18.812 4.884-25.349zm-165.246.443 5.754 5.315c3.774 3.485 7.545 6.094 10.95 7.578 3.5 1.524 5.194 2.712 5.194 3.638 0 2.28-.956 2.201-6.68-.545-6.511-3.124-9.947-6.262-12.98-11.857zm122.013 8.955c-.39-.165-1.222.16-2.32 1.049-1.104.894-1.61 1.946-1.31 2.727.268.698.668 1.27.888 1.27.22 0 .196-.529-.053-1.175-.248-.646-.137-1.368.246-1.605.384-.237.82-.064.969.383.15.447.712.106 1.252-.758.668-1.07.719-1.726.328-1.89zm-5.19 3.799c-.202.07-.423.262-.612.56-.379.598-.69.798-.7.446-.022-1.135-2.685.818-2.875 2.107l-.183 1.246 2.656-1.74c1.46-.957 2.46-2.058 2.223-2.443-.12-.193-.305-.246-.508-.176zm-14.948 1.646-.776 1.2c-.426.66-.779 1.47-.789 1.8-.01.33.35.6.79.6.44 0 .796-.81.786-1.8zm14.351 15.708.237 13.546.236 13.547h-9.4l-9.4-.002v-27.049l1.661.434c.914.24 1.966 1.237 2.338 2.217.741 1.95 2.321 2.799 5.201 2.799 2.881 0 4.399-.83 4.399-2.407 0-.871.93-1.761 2.365-2.261zm52.465 11.85c4.596.104 10.77 2.008 14.649 4.817 4.172 3.023 6.074 6.571 5.482 10.221-.587 3.619-1.839 5.004-4.518 5.004h-2.197l-.426-3.767c-.427-3.79-2.95-7.068-4.904-6.374-.954.34-.933 1.083.149 5.34.39 1.54.559 3.251.375 3.801-.213.634-1.907 1-4.631 1h-4.295l.447-3.8c.559-4.734-.758-9.804-3.344-12.878l-1.978-2.351 1.265-.487c1.038-.398 2.394-.562 3.926-.527zm-124.648.288c1.571-.094 3.026-.054 4.224.149l3.18.537-2.758 2.84c-3.08 3.171-3.972 6.384-3.406 12.273l.38 3.955H1903.31v-2.621c0-1.442.561-3.424 1.247-4.402 2.254-3.22-.39-4.574-3.7-1.895-1.338 1.084-1.875 2.43-1.996 5l-.166 3.518-2.416.246c-1.78.18-2.75-.234-3.691-1.578-2.894-4.132-.596-10.812 4.924-14.313 3.059-1.94 8.828-3.428 13.543-3.709zm251.24 19.711-1.879 1.233c-2.563 1.679-3.21 4.72-1.545 7.261l1.336 2.04 2.945-.245 2.948-.246 1.013-2.127c1.343-2.816.122-6.038-2.695-7.11zm-409.701.135c-.89.009-1.859.53-3.176 1.566-3.18 2.502-2.85 6.577.693 8.586 2.151 1.22 2.271 1.2 4.692-.703 2.579-2.028 2.81-5.64.507-7.941-1.013-1.014-1.826-1.517-2.716-1.508zm27.508.428c-1.559.085-3.08.978-3.973 2.646-1.276 2.384-.983 3.943 1.144 6.07 2.382 2.382 3.926 2.475 6.038.364 1.59-1.592 2.11-5.201.988-6.881-1.043-1.562-2.639-2.284-4.197-2.2zm353.681.357a4.897 4.897 0 0 0-2.61 1.246c-1.794 1.624-1.902 5.322-.204 7.02 2.826 2.826 8.342.575 8.342-3.405 0-3.209-2.793-5.25-5.528-4.861zm64.035 30.322c-24.774 0-44.908 20.086-44.908 44.801 0 11.65 3.89 21.03 12.639 30.479l5.156 5.57 6.504 3.094c3.577 1.701 8.44 3.538 10.81 4.082 5.773 1.323 16.136.594 21.66-1.524l4.37-1.676 2.031 1.942c1.117 1.068 2.931 2.29 4.031 2.717 4.013 1.556 9.022-.88 11.399-5.541l1.398-2.743v-34.4l-1.398-2.744c-.77-1.509-2.414-3.487-3.655-4.398l-2.255-1.659-12.545-.26c-16.208-.335-18.929.087-22.295 3.454l-2.649 2.646v3.358c0 7.513 4.222 10.625 15.2 11.203l7.6.4.241 1.693c.36 2.516-3.84 5.627-9.056 6.71-7.306 1.516-15.716-1.058-21.123-6.465-11.433-11.434-7.653-31.235 7.238-37.918l4.943-2.22 4.895.393c3.05.245 6.459 1.187 9.05 2.5 2.83 1.434 5.426 2.108 8.124 2.108h3.964l2.409-2.027c1.324-1.115 2.82-3.274 3.324-4.8l.914-2.775-.906-2.746c-2.431-7.365-14.475-13.254-27.11-13.254zm-99.273.032c-20.322-.803-37.509 10.942-44.588 31.298l-2.039 5.866.41 8.002c.659 12.853 4.804 21.952 14.326 31.445 5.38 5.363 11.619 8.93 19.057 10.892 2.42.639 7.114 1.184 10.432 1.213 23.166.203 42.651-18.344 44.49-42.347.616-8.044-.662-14.309-4.486-22-6.009-12.083-16.636-20.685-28.721-23.246a52.882 52.882 0 0 0-8.881-1.123zm-254.55.43c-2.994.124-5.837 1.556-7.655 4.257l-1.83 2.719v23.988c0 26.087-.348 28.8-4.195 32.649-5.964 5.963-16.19 4.188-20.42-3.545l-1.385-2.53L1808.11 85l-.4-25.863-2.988-2.739-2.989-2.736h-3.652c-4.313 0-7.616 1.527-9.488 4.385-1.91 2.913-2.329 13.495-1.512 38.016l.68 20.4 2.529 5.392c4.207 8.97 12.52 16.02 21.84 18.524 16.943 4.553 34.366-4.083 40.986-20.317l1.793-4.4V59.37l-2.361-2.467c-2.418-2.524-5.562-3.705-8.555-3.58zm-129.298.202-2.486 1.286c-1.367.706-3.054 2.152-3.75 3.214l-1.266 1.932.084 37.72.084 37.721 1.34 2.045c.737 1.124 2.433 2.711 3.772 3.528 5.167 3.15 11.567 1.168 14.078-4.362l1.52-3.347.016-8.516.018-8.516 9.4-.343 9.401-.346 4.627-1.807c6.458-2.522 13.415-9.132 16.76-15.927l2.613-5.31-.055-7.218-.053-7.217-1.814-4.628c-2.531-6.458-9.147-13.416-15.932-16.758l-5.304-2.614-16.527-.269zm168.701.02-2.78 1.32c-1.932.917-3.17 2.285-4.046 4.475l-1.262 3.154v70.336l1.276 3.184c.721 1.803 2.368 3.886 3.799 4.802v.002c5.154 3.302 12.183 1.085 15.125-4.771l1.398-2.785v-17.2l7.801-.01c4.29-.004 9.654-.504 11.92-1.107 28.56-7.604 31.47-45.54 4.473-58.328l-5.393-2.555-16.156-.26zm92.313.045-2.8 1.435c-1.564.802-3.424 2.674-4.212 4.237l-1.412 2.8.213 36.516.21 36.518 1.6 1.797c.88.988 2.68 2.465 4 3.28l2.4 1.483 13.2-.006c14.632-.007 18.643-.729 27.164-4.883 3.616-1.762 7.095-4.432 11.242-8.628 7.342-7.429 10.85-14.082 12.516-23.737l1.164-6.74-.824-5.922c-2.274-16.351-12.73-29.707-28.06-35.844l-4.401-1.761-16-.274zm131.424 15.707c2.526-.319 5.31 1.39 6.47 4.773l1.096 3.192-.898 3.297c-.494 1.812-1.643 4.24-2.553 5.398-2.956 3.757-9.599 2.11-9.508-2.357.021-1.047.393-.708 1.162 1.062l1.13 2.6 2.638-.026c3.066-.029 4.85-2.018 6.154-6.86 1.633-6.064-1.297-11.25-5.705-10.097-1.86.487-4.611 3.973-4.611 5.844 0 .795-.337 1.654-.748 1.908-.875.54.098-3.259 1.51-5.896.923-1.727 2.347-2.647 3.863-2.838zm-22.344.527c3.782.327 5.87 3.288 6.191 8.778l.25 4.26-.675-4.208c-.944-5.894-2.617-8.191-5.967-8.191-3.495 0-4.678 1.556-5.106 6.717-.571 6.89 2.903 11.637 7.701 10.525l2.126-.492-1.2.812c-5.132 3.473-10.52-3.474-9.367-12.076.593-4.423 2.571-6.425 6.047-6.125zm-96.68 4.447 7.399.348c8.457.397 11.98 1.82 16.761 6.776 4.394 4.552 6.54 9.975 6.502 16.423l-.03 5.354-2.165 4.426c-2.558 5.228-7.236 9.494-12.302 11.22-2.077.708-6.348 1.244-9.909 1.244h-6.256V97.166Zm-260 .192h6.026c7.038 0 10.422 1.198 13.412 4.752 3.979 4.729 1.99 12.463-3.83 14.894-2.61 1.09-12.412 1.51-14.608.623-.724-.292-1-3.14-1-10.337zm169.2.398 6.814.014 6.814.014 2.598 1.85c6.413 4.566 6.56 14.05.264 16.92-1.125.512-5.195 1.134-9.047 1.384l-7.004.453-.447-1.166c-.246-.641-.344-5.283-.219-10.316zm192.638 8.883c.151-.15.293-.09.393.21.192.576-.031 1.429-.496 1.894-.594.593-.698.281-.35-1.05.142-.54.302-.903.453-1.054zm-23.799 2.719c4.6 0 9.961 6.331 9.961 11.764v3.394l-2.2 1.094c-1.355.673-2.97.865-4.2.5l-2-.594 2.84-.08c3.426-.096 4.76-1.27 4.76-4.188 0-6.767-7.477-13.26-11.293-9.806-1.844 1.668-1.977 5.886-.288 9.154.672 1.298 1.043 2.361.823 2.361-.971 0-2.842-4.976-2.842-7.56 0-3.013 2.225-6.04 4.44-6.04zm60.264 0c3.797 0 5.474 6.216 2.979 11.04-.615 1.19-1.965 2.879-3 3.755l-1.883 1.594 1.7-1.997c.936-1.096 2.106-2.779 2.6-3.74 1.282-2.488 1.123-7.872-.267-9.025-1.516-1.258-5.298-.425-8.195 1.806-1.643 1.266-1.934 1.342-1.096.291 1.454-1.822 5.113-3.724 7.162-3.724zm-8.27 6.144c.11-.068.079.148-.107.655-1.178 3.225-1.275 7.281-.193 8.18.59.489 2.333 1.04 3.87 1.226l2.796.338-3.371.129-3.371.127-.828-1.547c-1.177-2.198-.978-5.717.455-8.053.388-.633.64-.986.75-1.055zm-21.802 3.487c3.797-.11 7.675 1.217 10.355 4.021.763.798 2.832 3.687 4.6 6.422l3.213 4.973v7.824l-1.963 1.965-1.963 1.963-3.438-.012c-1.89-.007-3.901-.307-4.47-.668-.578-.366.874-.499 3.285-.299l4.32.358 1.715-1.84c1.218-1.307 1.715-2.867 1.715-5.385v-3.545l-2.74-4.504c-4.644-7.631-8.535-10.509-14.207-10.502-5.04.006-8.877 2.71-13.5 9.508l-3.954 5.813v3.84c0 4.614 1.127 5.78 6.292 6.503l3.709.52-3.622.105c-6.3.186-8.56-2.941-7.035-9.734.685-3.049 2.639-6.227 7.819-12.717 2.355-2.95 6.072-4.499 9.869-4.61zm3.449 24.799c.778.033 1.22.116 1.053.263-.184.162-2.854.478-5.934.703-3.204.235-4.915.132-4-.238 1.167-.472 6.546-.828 8.881-.728zm-171.57 40.421-1.657 1.498-1.654 1.499v21.509l1.313 2.766c1.558 3.285 5.214 6.235 9.087 7.336 1.54.437 3.34.826 4 .863 2.663.15 7.733-1.794 9.899-3.797 3.838-3.549 4.502-6.21 4.502-18.054v-10.782l-1.692-1.183c-.93-.652-2.28-.983-3-.735-2.846.983-3.308 2.759-3.308 12.723v9.79l-2.108 1.657c-2.632 2.07-5.941 2.122-8.404.131l-1.889-1.525-.4-10.647-.4-10.644-2.145-1.203zm96.69.164-2 1.311-2 1.31v14.63c0 14.89.31 16.583 3.2 17.55.66.221 1.92-.052 2.8-.605l1.599-1.006.218-15.273.217-15.274-2.017-1.322zm-173.509.64c-3.146.2-6.233 1.527-8.642 3.937l-2.649 2.646v7.336l2.2 2.404c1.585 1.733 3.653 2.767 7.4 3.7 7.242 1.801 8.458 2.95 5.87 5.539-1.65 1.65-4.935 1.121-8.243-1.325l-2.36-1.744-2.634.752c-1.712.489-2.716 1.32-2.87 2.373-.334 2.301 2.753 5.874 6.575 7.61 4.329 1.966 7.38 1.892 11.685-.284 6.805-3.437 9.115-10.173 5.12-14.921-1.503-1.786-3.604-2.901-7.8-4.137-6.54-1.926-7.197-2.352-6.482-4.215.81-2.112 4.223-2.553 7.23-.934l2.651 1.428 2.03-1.328c2.607-1.709 2.579-3.944-.077-6.033a13.152 13.152 0 0 0-9.004-2.805zm211.502.07c-.887.06-1.792.181-2.713.367l-4.32.87-3.72 3.721c-6.161 6.161-7.108 13.205-2.778 20.665 2.156 3.713 5.133 6.126 9.703 7.867 6.612 2.518 15.255-.792 19.553-7.487l2.394-3.728-.265-5.684-.266-5.681-2.303-3.323c-3.728-5.38-9.071-8.008-15.285-7.588zm-180.394.275-1.6 1.6c-1.946 1.946-2.006 3.025-.275 4.937.968 1.07 2.473 1.463 5.6 1.463h4.275v23.2l1.601 1.599c1.926 1.926 2.333 1.958 4.621.355l1.778-1.246v-23.908h3.654c4.826 0 6.746-1.103 6.746-3.87 0-3.853-.954-4.13-14.16-4.13zm98.4.15-7.6.248-.216 15.498c-.151 10.754.062 15.834.697 16.6 1.325 1.596 14.227 1.498 18.145-.139 11.854-4.951 14.566-20.565 4.974-28.636-3.563-2.999-7.393-3.853-16-3.57zm0 7.85h8.16l2.721 2.719 2.719 2.72v3.102c0 3.815-1.767 6.476-5.278 7.943-1.468.614-3.942 1.115-5.496 1.115h-2.826v-8.8zm81.91.127c2.159-.268 4.502.3 6.582 1.887 5.12 3.905 4.183 11.982-1.674 14.43-3.529 1.474-4.222 1.45-7.607-.247-3.551-1.78-4.978-4.514-4.49-8.598.508-4.255 3.592-7.026 7.19-7.472zm-260.273 4.635-46.883.218-46.883.22-1.135 1.552c-1.465 2.004-1.434 3.235.122 4.79l1.257 1.257H1804.654l.928-2.037.928-2.036-1.983-1.982zm378.15.095c-24.771.028-49.534.297-50.762.778-2.146.84-3.2 4.306-1.816 5.974l.988 1.19h102.967l1.236-1.887c1.52-2.32.828-4.39-1.804-5.39-1.258-.479-26.038-.692-50.809-.665z" transform="matrix(.26458 0 0 .26458 -451.53 65.785)"/>
  <path style="fill:#b1b1b1" d="m1969.93-248.563-10.22.391-7.599 2.557c-4.18 1.406-9.696 3.8-12.258 5.318-2.561 1.518-4.775 2.76-4.92 2.76-.144 0-2.135-1.262-4.425-2.803-5.773-3.885-11.724-5.48-18.735-5.02-7.662.503-12.696 3.143-18.199 9.544-12.212 14.203-14.325 15.718-23.293 16.703-5.986.657-8.57 2.254-8.57 5.299 0 1.031.729 2.605 1.62 3.496l1.618 1.619-3.674 2.18c-2.02 1.199-5.36 3.262-7.42 4.582l-3.744 2.4-.246 2.951-.246 2.951 2.014 1.32c1.373.9 2.786 1.148 4.445.784 1.338-.294 2.432-.371 2.432-.172s-.696 1.937-1.547 3.863c-4.689 10.611-1.904 23.409 7.105 32.658 4.933 5.065 9.806 7.37 15.018 7.1 2.104-.109 5.506-.122 7.562-.027l3.739.172-.42 5.798c-1.326 18.276 12.014 38 30.728 45.436 2.54 1.009 4.724 1.912 4.856 2.006.131.094-1.497 2.464-3.617 5.265-6.87 9.078-10.39 20.4-9.49 30.518.265 2.983.57 5.827.675 6.322.106.495-1.97 2.11-4.61 3.59-2.64 1.48-7.29 5.267-10.333 8.414l-5.533 5.72-4.329-2.335c-5.3-2.861-10.532-7.762-13.267-12.43-4.343-7.411-5.718-19.03-3.336-28.176 1.534-5.888 1.51-7.66-.125-9.466-1.891-2.09-4.859-1.8-9.629.935-8.697 4.988-17.584 15.891-21.05 25.824-2.155 6.175-2.951 17.658-1.655 23.9.516 2.488 2.32 6.804 4.006 9.593l3.066 5.07-1.508 1.916c-2.048 2.604-1.911 3.724.996 8.256 5.827 9.08 18.51 17.696 30.034 20.4l5.464 1.283V21.66h-36.636l-36.637.002-1.963 1.963c-2.36 2.36-2.487 4.413-.433 6.95l1.527 1.888 56.672.475v.002c31.169.261 92.13.351 135.47.2 43.34-.15 84.666-.274 91.836-.275l13.038-.002 1.962-1.963c2.579-2.578 2.525-5.481-.142-7.58l-2.11-1.656h-18.89l-18.893.002.274-4.844.271-4.843-2.103-4.305c-1.158-2.367-3.343-5.388-4.854-6.715l-2.748-2.412 1.233-3.441c1.845-5.154 1.612-15.575-.489-21.89-2.878-8.648-9.464-16.445-18.623-22.046l-4.428-2.707.438-8 .436-8-1.282-4.98c-1.7-6.605-5.19-13.351-9.34-18.055-1.86-2.11-3.248-3.958-3.084-4.108.165-.15 2.28-1.098 4.7-2.107 20-8.34 32.075-25.842 31.01-44.951l-.346-6.2h3.478c1.913 0 4.184-.44 5.047-.98l1.57-.98.979.98c3.745 3.745 17.117-4.103 21.445-12.588 4.32-8.468 4.99-19.017 1.627-25.61-2.19-4.293-2.086-4.603 1.574-4.603 4.03 0 5.616-1.312 5.616-4.646v-2.631l-2.58-2.17c-1.418-1.193-3.488-2.563-4.6-3.045-1.112-.482-3.38-1.75-5.039-2.818l-3.018-1.944 1.319-1.457c1.674-1.85 1.693-5.273.037-6.93-.769-.768-3.487-1.515-6.81-1.87-7.5-.802-12.643-3.54-17.44-9.29-11.635-13.943-16.475-17.017-26.785-17.017-6.537 0-11.78 1.64-16.887 5.285-2.091 1.493-4.006 2.715-4.256 2.715s-2.074-1.115-4.053-2.477c-8.856-6.093-22.623-9.152-38.47-8.548zm-6.22 10.647 9.6.04 9.6.038 6.365 1.793c3.5.986 8.796 3.07 11.768 4.631 5.404 2.84 19.664 14.906 24.002 20.309l2.273 2.832-.886 4.767c-.497 2.67-.731 9.168-.534 14.768l.352 10 1.72 4.746c2.04 5.624 5.852 12.16 9.766 16.744 1.554 1.82 3.325 4.391 3.936 5.711l1.111 2.398.322-1.398c.46-1.992 2.329-1.736 2.9.398.882 3.29.503 14.541-.634 18.813-1.588 5.967-4.469 10.483-9.88 15.494-10.297 9.533-24.103 14.576-45.665 16.684-7.726.755-22.493.9-28.916.285-18.122-1.737-27.951-4.082-36.969-8.82-6.234-3.277-12.886-8.795-12.11-10.05.289-.468.16-.625-.29-.347-1.145.708-3.72-2.34-2.984-3.531.37-.6.266-.768-.268-.438-.478.295-1.1.161-1.383-.297-.283-.458-.152-.732.29-.611.44.12 1.328-.488 1.972-1.352l1.17-1.568 1.248 1.035 1.248 1.035-1.262-3.209c-1.607-4.091-.957-7.722 2.15-12.011.427-.59.917-1.052 1.37-1.57-1.616-2.472.136-5.979 5.635-6.426.628-.052 1.259-.072 1.89-.07a30.95 30.95 0 0 1 1.89.066l.188.027c1.843-.784 3.967-1.601 6.533-2.518 17.73-6.332 23.733-10.701 26.176-19.05 1.423-4.861.96-9.3-1.463-14.08l-1.576-3.112 1.072-3.69c.59-2.028 1.043-6.423 1.006-9.767l-.068-6.08-2.453-5.242c-2.925-6.252-7.731-11.308-12.822-13.49l-3.713-1.59 2.361-1.91c3.358-2.715 11.033-6.35 17.993-8.524zm69.983 3.578c6.06 0 10.08 2.599 15.951 10.313 5.933 7.793 11.088 12.39 15.932 14.205 2.054.769 4.061 1.937 4.461 2.595 1.784 2.94 7.485 8.362 11.871 11.291 2.632 1.758 4.243 3.196 3.58 3.196-.663 0-1.415.543-1.67 1.207-.254.664-.743 1.146-1.086 1.07-.939-.21-5.303 1.051-6.28 1.815-.473.368-1.643.52-2.6.335-3.012-.58-1.898.71 2.26 2.618 4.646 2.132 6.408 4.868 6.382 9.916-.025 4.889-2.617 10.039-6.865 13.644l-1.656 1.404-.13-3.29c-.072-1.865-1.082-5.053-2.33-7.348l-2.202-4.055-.475 4.342c-.545 4.99-2.335 8.898-4.898 10.693-3.986 2.792-11.427.665-17.612-5.037-8.52-7.853-11.317-21.567-8.154-39.978l1.264-7.346-1.676-2.711c-.921-1.49-4.73-5.333-8.463-8.537-3.733-3.204-6.787-6.09-6.787-6.412 0-1.426 7.125-3.93 11.183-3.93zm-120.332.078c2.687-.176 5.494.37 8.432 1.633 3.8 1.635 5.016 3.777 1.832 3.229-.833-.144-3.708-.453-6.389-.686l-4.875-.424-2.617 1.352c-3.842 1.987-9.082 7.08-13.709 13.32-2.242 3.024-4.245 5.498-4.453 5.498-1.72 0 4.905-12.157 9.271-17.014 3.884-4.318 8.03-6.615 12.508-6.908zm22.094 11.922h3.127c3.973 0 3.938.808-.117 2.678-1.763.813-5.295 3.513-7.848 6s-5.445 5.602-6.428 6.922l-1.787 2.4.508-2.4c.865-4.075 4.301-9.083 8.516-12.414zm-51.63 12c.174 0-.377 1.35-1.227 3-1.964 3.81-5.739 7.384-11.104 10.516-4.152 2.424-8.183 3.9-8.183 2.996 0-.254 1.889-1.675 4.199-3.156 4.2-2.695 10.2-8.663 10.2-10.147 0-.636 4.902-3.209 6.114-3.209zm122.757 18.531c-7.434-.065-14.095 4.776-16.453 12.889l-1.332 4.58.918 4.416c1.137 5.479 4.776 10.42 9.521 12.924 8.409 4.438 19.288.762 23.649-7.988 4.816-9.666 1.034-20.507-8.742-25.059-2.52-1.173-5.083-1.74-7.561-1.762zm-69.148 3.87c2.456 0 6.677 4.03 6.677 6.376 0 2.319-2.055 6.12-3.636 6.727-4.698 1.803-9.965-1.55-9.965-6.342v-2.619l2.463-2.072c1.354-1.14 3.36-2.07 4.46-2.07zm66.172 0c3.28 0 6.24 3.137 6.341 6.724l.086 3.08-2.205 1.897c-2.412 2.074-5.863 2.466-7.927.898-1.383-1.05-2.99-4.657-2.99-6.713 0-1.953 4.474-5.887 6.695-5.887zm-29.913 22.39c-3.528.005-7.059.533-9.375 1.584-4.179 1.897-6.277 5.667-5.49 9.863.592 3.156 5.526 8.192 8.842 9.024l1.998.502-1.127 2.177c-1.775 3.433-7.248 7.914-10.383 8.502-4.102.77-8.321-.245-10.635-2.558l-2.01-2.008.9-.898c2.603-2.604-.444-6.979-4.862-6.979-4.377 0-6.446 7.788-3.555 13.379 2.737 5.293 9.125 9.007 15.514 9.018l2.601.004v3.746c0 7.597 6.456 15.587 13.715 16.972v.002c1.916.366 4.384.49 5.484.276 2.978-.58 8.927-3.267 10.684-4.826 2.327-2.066 5.299-8.986 5.309-12.356l.01-2.984 2.199-.451c11.583-2.378 17-7.137 17-14.934v-3.918l-1.963-1.963c-2.238-2.238-6.096-2.62-7.644-.754-.665.8-.839 2.437-.512 4.82l.494 3.608-2.586 1.578c-3.085 1.881-8.525 2.071-11.736.41-2.148-1.11-8.889-8.096-8.819-9.138.018-.269 1.81-1.322 3.983-2.34 9.392-4.405 10.091-13.816 1.322-17.797-2.302-1.045-5.827-1.565-9.355-1.56zm-1.982 35.137.238 4.836c.324 6.58 2.13 6.621 3.418.076l.936-4.762 1.18 1.18c.648.649 2.225 1.72 3.503 2.38l2.324 1.204v2.404c0 3.067-1.72 7.145-3.79 8.988-2.197 1.955-6.48 2.418-9.557 1.034-3.109-1.399-5.053-4.921-5.053-9.159v-3.171l3.4-2.504zm43.775 21.308c-.326.03-.884.173-1.593.42-1.42.495-2.582 1.07-2.582 1.276 0 .552 3.471-.59 4.382-1.444.215-.2.12-.282-.207-.252zm-37.328 5.963c-.194 0-.575.361-.847.801-.272.44-.113.8.353.8.466 0 .846-.36.846-.8 0-.44-.158-.8-.352-.8zm-9.447 1.871c-.55.222-.1.405 1 .405s1.55-.183 1-.405c-.55-.222-1.45-.222-2 0zm40.602 10.03 4.62 4.984c7.773 8.38 11.599 17.986 10.39 26.09l-.386 2.574-2.556-1.95c-3.346-2.55-7.846-4.398-10.719-4.398h-2.303l3.028 3.182c1.664 1.75 4.218 5.62 5.676 8.6l2.648 5.418-.076 12.4-.074 12.4-2.178 7.2C2013.92-3.286 2012.72-1.09 2008.78.994l-3.47 1.834 5.73.463 5.728.463 3.146 2.082c3.818 2.526 6.16 7.01 5.47 10.467-.818 4.085-2.578 5.36-7.397 5.36h-4.276v-3.2c0-3.402-2.101-6.4-4.486-6.4h-1.287l.623 2.199c.343 1.21.652 3.28.687 4.6l.062 2.4-3.078.254-3.078.252-2.922-3.35c-1.607-1.843-3.552-4.47-4.322-5.84l-1.398-2.49v-27.756l2.699-3.336c3.961-4.892 5.424-8.228 5.898-13.459.542-5.979-1.311-11.117-5.035-13.957-1.482-1.13-3.036-1.844-3.453-1.586-.418.258-.573 2.539-.346 5.068.467 5.193-.935 11.76-2.326 10.9-.55-.34-.658-.18-.285.423.345.558-.343 2.33-1.62 4.172-2.371 3.422-4.528 5.006-5.556 4.078-.348-.315-.384-.137-.078.396.354.616-.607 1.563-2.639 2.6-1.758.897-3.3 1.63-3.427 1.629-.128-.001-.32-2.325-.428-5.166-.213-5.618-2.428-13.341-3.967-13.832-1.222-.39-3.172 6.422-3.885 13.574l-.535 5.373-2.308-1.193c-1.27-.657-2.31-1.387-2.31-1.621 0-.235.322-.228.716.015 1.164.72 1.682-1.754.562-2.683-.564-.469-1.221-.653-1.462-.413-.241.241-2.46-1.943-4.928-4.853-2.469-2.91-4.489-4.931-4.489-4.492 0 .439.368 1.024.815 1.3.447.277.6.848.34 1.268-.26.42 0 .666.586.545.586-.122 1.012.402.951 1.172-.061.779.256 1.163.723.875.458-.283.597-.132.308.336s.48 1.699 1.711 2.734c3.251 2.736 4.043 4.41 1.033 2.186-3.237-2.393-7.031-8.08-8.14-12.2-.489-1.813-.621-5.173-.31-7.847l.54-4.676h-1.383c-3.378 0-8.373 8.201-8.373 13.748 0 3.935 2.468 9.964 5.992 14.637l3.608 4.783v13.363c0 7.35-.372 14.343-.826 15.537-.454 1.195-2.288 3.917-4.075 6.051l-3.248 3.881h-6.252l-.094-1.4c-.123-1.832-.136-1.725.512-5.2l.56-3h-2.06c-2.54 0-3.719 2.009-3.719 6.348v3.252h-8.683l-1.658-2.107c-3.484-4.429-1.126-11.428 4.892-14.528 2.43-1.25 5.134-1.877 8.506-1.97 2.72-.076 4.943-.237 4.943-.36 0-.122-1.341-.855-2.98-1.629l-2.978-1.406-2.258-4.562c-3.471-7.017-6.302-19.02-6.77-28.7l-.408-8.46 1.36-4.739c1.558-5.432 4.222-10.332 7.886-14.506l2.549-2.9-3.485.557c-3.98.636-7.66 2.332-10.423 4.804l-1.909 1.705.436-6.63.434-6.633 2.798-5.895c1.863-3.922 4.32-7.402 7.346-10.404l4.547-4.512 6.527 1.34c4.538.932 12.137 1.453 24.928 1.709l18.4.37 10.4-1.722zm-65.202 5.584-1.4.265-1.4.266-.237 4.021-.234 4.022 1.853 2.752c1.02 1.514 3.07 3.57 4.555 4.57 3.81 2.568 4.482 2.261 2.045-.933-2.468-3.236-5.182-10-5.182-12.914zm59.313.316.049 2.1c.057 2.422-1.386 5.897-5.004 12.047l-2.559 4.347 3.819-2.748c6.268-4.51 8.104-8.349 6.433-13.447-.43-1.314-.35-1.73.262-1.352.487.301.887.212.887-.199 0-.41-.875-.748-1.944-.748zm-145.313 16.2.254 2.208c.14 1.22-.712 4.253-1.906 6.776-1.188 2.51-2.517 5.656-2.953 6.99-.437 1.334-1.02 5.486-1.295 9.226l-.5 6.8-1.113-2.637c-2.556-6.06-.283-18.132 4.79-25.442zm57.12 28.357.402 2.62c.222 1.443.623 5.324.892 8.624.555 6.804 2.41 15.706 4.13 19.822l1.161 2.777-2.254-.7c-1.238-.386-5.53-.7-9.539-.7h-7.287l.637-2.215c.384-1.338.339-2.033-.113-1.754-.412.255-.75 1.094-.75 1.864s-.497 2.081-1.106 2.914l-1.107 1.511-1.02-4.56-1.021-4.56 1.021-4.6c.562-2.53 1.733-6 2.602-7.713 1.909-3.763 7.59-9.956 10.924-11.908zm117.027 0 3.726 2.672c4.728 3.39 9.326 9.428 11.1 14.572 1.492 4.324 1.85 14.297.559 15.588-.506.505-1.881.475-3.914-.086-1.724-.476-5.494-.687-8.377-.469-2.883.218-6.112.673-7.176 1.01l-1.936.613.653-1.53c1.483-3.478 4.44-18.812 4.886-25.349zm-165.246.443 5.754 5.315c3.774 3.485 7.545 6.094 10.95 7.578 3.5 1.524 5.194 2.712 5.194 3.638 0 2.28-.956 2.201-6.68-.545-6.511-3.124-9.947-6.262-12.98-11.857zm122.013 8.955c-.39-.165-1.222.16-2.32 1.049-1.104.894-1.61 1.946-1.31 2.727.268.698.668 1.27.888 1.27.22 0 .196-.529-.053-1.175-.248-.646-.137-1.368.246-1.605.383-.237.82-.064.969.383.15.447.712.106 1.252-.758.668-1.07.719-1.726.328-1.89zm-5.19 3.799c-.202.07-.423.262-.612.56-.379.598-.69.798-.7.446-.022-1.135-2.685.818-2.875 2.107l-.183 1.246 2.656-1.74c1.46-.957 2.46-2.058 2.223-2.443-.12-.193-.305-.246-.508-.176zm-14.948 1.646-.776 1.2c-.426.66-.779 1.47-.789 1.8-.01.33.35.6.79.6.44 0 .796-.81.786-1.8zm14.351 15.708.237 13.546.236 13.547h-9.4l-9.4-.002v-27.049l1.661.434c.914.24 1.966 1.237 2.338 2.217.741 1.95 2.321 2.799 5.201 2.799 2.881 0 4.399-.83 4.399-2.407 0-.871.93-1.761 2.365-2.261zm52.465 11.85c4.596.104 10.77 2.008 14.649 4.817 4.172 3.023 6.074 6.571 5.482 10.221-.587 3.619-1.839 5.004-4.518 5.004h-2.197l-.426-3.767c-.427-3.79-2.95-7.068-4.904-6.374-.954.34-.933 1.083.149 5.34.39 1.54.559 3.251.375 3.801-.213.634-1.907 1-4.631 1h-4.295l.447-3.8c.559-4.734-.758-9.804-3.344-12.878l-1.978-2.351 1.265-.487c1.038-.398 2.394-.562 3.926-.527zm-124.648.288c1.571-.094 3.026-.054 4.224.149l3.18.537-2.758 2.84c-3.08 3.171-3.972 6.384-3.406 12.273l.38 3.955H1903.31v-2.621c0-1.442.561-3.424 1.247-4.402 2.254-3.22-.39-4.574-3.7-1.895-1.338 1.084-1.875 2.43-1.996 5l-.166 3.518-2.416.246c-1.78.18-2.75-.234-3.691-1.578-2.894-4.132-.596-10.812 4.924-14.313 3.059-1.94 8.828-3.428 13.543-3.709zm251.24 19.711-1.879 1.233c-2.563 1.679-3.21 4.72-1.545 7.261l1.336 2.04 2.945-.245 2.948-.246 1.013-2.127c1.343-2.816.122-6.038-2.695-7.11zm-409.701.135c-.89.009-1.859.53-3.176 1.566-3.18 2.502-2.85 6.577.693 8.586 2.151 1.22 2.271 1.2 4.692-.703 2.579-2.028 2.81-5.64.507-7.941-1.013-1.014-1.826-1.517-2.716-1.508zm27.508.428c-1.559.085-3.08.978-3.973 2.646-1.276 2.384-.983 3.943 1.144 6.07 2.382 2.382 3.926 2.475 6.038.364 1.59-1.592 2.11-5.201.988-6.881-1.043-1.562-2.639-2.284-4.197-2.2zm353.681.357a4.897 4.897 0 0 0-2.61 1.246c-1.794 1.624-1.902 5.322-.204 7.02 2.826 2.826 8.342.575 8.342-3.405 0-3.209-2.793-5.25-5.528-4.861zm64.035 30.322c-24.774 0-44.908 20.086-44.908 44.801 0 11.65 3.89 21.03 12.639 30.479l5.156 5.57 6.504 3.094c3.577 1.701 8.44 3.538 10.81 4.082 5.773 1.323 16.136.594 21.66-1.524l4.37-1.676 2.031 1.942c1.117 1.068 2.931 2.29 4.031 2.717 4.013 1.556 9.022-.88 11.399-5.541l1.398-2.743v-34.4l-1.398-2.744c-.77-1.509-2.414-3.487-3.655-4.398l-2.255-1.659-12.545-.26c-16.208-.335-18.929.087-22.295 3.454l-2.649 2.646v3.358c0 7.513 4.222 10.625 15.2 11.203l7.6.4.241 1.693c.36 2.516-3.84 5.627-9.056 6.71-7.306 1.516-15.716-1.058-21.123-6.465-11.433-11.434-7.653-31.235 7.238-37.918l4.943-2.22 4.895.393c3.05.245 6.459 1.187 9.05 2.5 2.83 1.434 5.426 2.108 8.124 2.108h3.964l2.409-2.027c1.324-1.115 2.82-3.274 3.324-4.8l.914-2.775-.906-2.746c-2.431-7.365-14.475-13.254-27.11-13.254zm-99.273.032c-20.322-.803-37.509 10.942-44.588 31.298l-2.039 5.866.41 8.002c.659 12.853 4.804 21.952 14.326 31.445 5.38 5.363 11.619 8.93 19.057 10.892 2.42.639 7.114 1.184 10.432 1.213 23.166.203 42.651-18.344 44.49-42.347.616-8.044-.662-14.309-4.486-22-6.009-12.083-16.636-20.685-28.721-23.246a52.882 52.882 0 0 0-8.881-1.123zm-254.55.43c-2.994.124-5.837 1.556-7.655 4.257l-1.83 2.719v23.988c0 26.087-.348 28.8-4.195 32.649-5.964 5.963-16.19 4.188-20.42-3.545l-1.385-2.53L1808.11 85l-.4-25.863-2.988-2.739-2.989-2.736h-3.652c-4.313 0-7.616 1.527-9.488 4.385-1.91 2.913-2.329 13.495-1.512 38.016l.68 20.4 2.529 5.392c4.207 8.97 12.52 16.02 21.84 18.524 16.943 4.553 34.366-4.083 40.986-20.317l1.793-4.4V59.37l-2.361-2.467c-2.418-2.524-5.562-3.705-8.555-3.58zm-129.298.202-2.486 1.286c-1.367.706-3.054 2.152-3.75 3.214l-1.266 1.932.084 37.72.084 37.721 1.34 2.045c.737 1.124 2.433 2.711 3.772 3.528 5.167 3.15 11.567 1.168 14.078-4.362l1.52-3.347.016-8.516.018-8.516 9.4-.343 9.401-.346 4.627-1.807c6.458-2.522 13.415-9.132 16.76-15.927l2.613-5.31-.055-7.218-.053-7.217-1.814-4.628c-2.531-6.458-9.147-13.416-15.932-16.758l-5.304-2.614-16.527-.269zm168.701.02-2.78 1.32c-1.932.917-3.17 2.285-4.046 4.475l-1.262 3.154v70.336l1.276 3.184c.721 1.803 2.368 3.886 3.799 4.802v.002c5.154 3.302 12.183 1.085 15.125-4.771l1.398-2.785v-17.2l7.801-.01c4.29-.004 9.654-.504 11.92-1.107 28.56-7.604 31.47-45.54 4.473-58.328l-5.393-2.555-16.156-.26zm92.313.045-2.8 1.435c-1.564.802-3.424 2.674-4.212 4.237l-1.412 2.8.213 36.516.21 36.518 1.6 1.797c.88.988 2.68 2.465 4 3.28l2.4 1.483 13.2-.006c14.632-.007 18.643-.729 27.164-4.883 3.616-1.762 7.095-4.432 11.242-8.628 7.342-7.429 10.85-14.082 12.516-23.737l1.164-6.74-.824-5.922c-2.274-16.351-12.73-29.707-28.06-35.844l-4.401-1.761-16-.274zm109.312 15.762c.974.097 1.964.51 2.893 1.28 4.276 3.547 4.386 15.187.164 17.446-5.66 3.03-10.511-3.358-9.316-12.266.564-4.207 3.339-6.752 6.26-6.46zm23.082.095c1.466-.002 2.931.443 3.917 1.334 3.18 2.878 2.784 10.655-.772 15.176-1.185 1.507-2.4 2.105-4.273 2.105-4.844 0-6.99-4.818-5.293-11.888.525-2.19 1.651-4.61 2.502-5.38.989-.894 2.454-1.344 3.92-1.347zm-119.994 4.824 7.399.348c8.457.397 11.98 1.82 16.762 6.776 4.393 4.552 6.54 9.975 6.501 16.423l-.03 5.354-2.165 4.426c-2.558 5.228-7.236 9.494-12.302 11.22-2.077.708-6.348 1.244-9.909 1.244h-6.255V97.166Zm-260 .192h6.026c7.038 0 10.422 1.198 13.412 4.752 3.979 4.729 1.99 12.463-3.83 14.894-2.61 1.09-12.412 1.51-14.608.623-.724-.292-1-3.14-1-10.337zm169.2.398 6.814.014 6.814.014 2.598 1.85c6.413 4.566 6.56 14.05.264 16.92-1.125.512-5.195 1.134-9.047 1.384l-7.004.453-.447-1.166c-.246-.641-.344-5.283-.219-10.316zm168.84 11.602c2.35 0 5.92 2.426 7.937 5.394 2.214 3.26 2.78 9.004 1.023 10.409-5.36 4.287-13.4-1.547-13.4-9.725 0-3.052 2.21-6.078 4.44-6.078zm59.091.248c1.616-.171 3.148.146 4.016 1.014l1.428 1.425-.366 4.389-.363 4.387-2.912 2.668-2.91 2.668h-3.184c-3.496 0-4.84-1.439-4.84-5.18 0-2.507 2.424-7.473 4.616-9.455 1.201-1.087 2.9-1.745 4.515-1.916zm-28.5 9.351c5.664-.002 9.33 2.479 13.809 9.34l3.959 6.065v7.867l-2.057 2.059-2.059 2.058-4.54-.586c-2.499-.322-6.704-.6-9.344-.617-2.64-.016-6.96.234-9.6.555l-4.799.582-1.703-1.239c-3.954-2.877-2.722-9.824 3.137-17.683 4.66-6.252 8.032-8.399 13.197-8.4zm-168.521 65.252-1.656 1.498-1.655 1.499v21.509l1.313 2.766c1.559 3.285 5.214 6.235 9.088 7.336 1.54.437 3.34.826 4 .863 2.662.15 7.733-1.794 9.898-3.797 3.838-3.549 4.502-6.21 4.502-18.054v-10.782l-1.691-1.183c-.931-.652-2.281-.983-3-.735-2.847.983-3.31 2.759-3.31 12.723v9.79l-2.106 1.657c-2.632 2.07-5.942 2.122-8.405.131l-1.888-1.525-.4-10.647-.401-10.644-2.145-1.203zm96.69.164-2 1.311-2 1.31v14.63c0 14.89.31 16.583 3.2 17.55.66.221 1.92-.052 2.8-.605l1.599-1.006.219-15.274.216-15.273-2.017-1.322zm-173.509.64c-3.146.2-6.233 1.527-8.642 3.937l-2.649 2.646v7.336l2.2 2.404c1.585 1.733 3.653 2.767 7.4 3.7 7.242 1.801 8.458 2.95 5.87 5.539-1.65 1.65-4.935 1.121-8.243-1.325l-2.36-1.744-2.634.752c-1.712.489-2.716 1.32-2.87 2.373-.334 2.301 2.753 5.874 6.575 7.61 4.329 1.966 7.38 1.892 11.685-.284 6.805-3.437 9.115-10.173 5.12-14.921-1.503-1.786-3.604-2.901-7.8-4.137-6.54-1.926-7.197-2.352-6.482-4.215.81-2.112 4.223-2.553 7.23-.934l2.651 1.428 2.03-1.328c2.607-1.709 2.579-3.944-.077-6.033a13.152 13.152 0 0 0-9.004-2.805zm211.502.07c-.887.06-1.792.181-2.713.367l-4.32.87-3.72 3.721c-6.161 6.161-7.108 13.205-2.778 20.665 2.156 3.713 5.133 6.126 9.703 7.867 6.612 2.518 15.255-.792 19.553-7.487l2.394-3.728-.265-5.684-.266-5.681-2.303-3.323c-3.728-5.38-9.071-8.008-15.285-7.588zm-180.394.275-1.6 1.6c-1.946 1.946-2.006 3.025-.275 4.937.968 1.07 2.473 1.463 5.6 1.463h4.275v23.2l1.601 1.599c1.926 1.926 2.333 1.958 4.621.355l1.778-1.246v-23.908h3.654c4.826 0 6.746-1.103 6.746-3.87 0-3.853-.954-4.13-14.16-4.13zm98.4.15-7.6.248-.216 15.498c-.151 10.754.062 15.834.697 16.6 1.325 1.596 14.227 1.498 18.145-.139 11.854-4.952 14.566-20.565 4.974-28.636-3.563-2.999-7.393-3.853-16-3.57zm0 7.85h8.16l2.721 2.719 2.719 2.72v3.102c0 3.815-1.767 6.476-5.278 7.943-1.468.614-3.941 1.115-5.496 1.115h-2.826v-8.8zm81.91.127c2.159-.268 4.502.3 6.582 1.887 5.12 3.905 4.184 11.982-1.673 14.43-3.53 1.474-4.223 1.45-7.608-.247-3.551-1.781-4.977-4.514-4.49-8.598.508-4.255 3.592-7.026 7.19-7.472zm-260.273 4.635-46.883.218-46.883.22-1.134 1.552c-1.466 2.004-1.435 3.235.12 4.79l1.258 1.257H1804.654l.928-2.037.928-2.036-1.983-1.982zm378.15.095c-24.771.028-49.534.297-50.761.778-2.147.84-3.201 4.306-1.817 5.974l.988 1.19h102.967l1.236-1.887c1.52-2.32.828-4.39-1.804-5.39-1.258-.479-26.038-.692-50.809-.665z" transform="matrix(.26458 0 0 .26458 -451.53 65.785)"/>
  <path style="fill:#272727" d="M1974.512-248.266c-13.767-.075-20.25 1.383-31.74 7.143l-8.633 4.328-2.014-1.93c-4.826-4.62-15.354-7.318-23.057-5.908-7.308 1.338-11.49 4.121-17.404 11.584-8.913 11.248-12.448 13.607-21.678 14.469-2.862.267-5.715.997-6.34 1.621-1.701 1.702-1.416 5.535.514 6.887l1.65 1.154-2.25 1.588c-1.237.873-4.104 2.52-6.37 3.662-4.388 2.21-7.48 5.427-7.48 7.781 0 2.641 2.37 4.113 6.14 3.813l3.484-.278-.535 1.207c-.294.664-1.237 3.188-2.096 5.608l-1.56 4.398.341 6.016c.418 7.36 2.866 13.108 8.008 18.795 1.994 2.205 5.205 4.798 7.135 5.762l3.51 1.753 5.986.082c3.293.045 7.069.093 8.389.108l2.398.025-.277 6.63c-.352 8.383.847 14.154 4.424 21.304 5.022 10.039 15.014 18.987 26.654 23.867 2.42 1.015 4.541 1.974 4.713 2.131.172.157-.957 1.691-2.508 3.408-3.626 4.014-6.553 9.035-8.732 14.985l-1.737 4.736-.12 10.277-.124 10.278-4.625 2.482c-4.726 2.536-10.922 7.953-13.78 12.049l-1.595 2.289-4.035-2.045c-10.245-5.192-17.247-14.983-18.895-26.42l-.86-5.975 1.65-8.238 1.65-8.236-.893-1.432c-3.095-4.957-15.826 2.52-24.148 14.182-4.456 6.243-6.39 10.807-8.04 18.941-2.092 10.33-.292 20.148 5.143 28.049l2.43 3.533-1.547 1.324c-3.44 2.946-.733 8.678 7.854 16.627 5.823 5.392 14.166 9.859 22.295 11.938 3.396.869 6.304 1.71 6.462 1.867.158.158-.106 1.32-.585 2.582-.5 1.316-.65 3.92-.348 6.11l.525 3.818h-74.023l-1.465 1.322c-1.875 1.697-1.88 5.251-.01 6.943l1.453 1.317 33.947.254c18.671.14 85.301.234 148.065.209l114.115-.045 1.684-1.526c1.99-1.802 2.207-5.439.427-7.218l-1.257-1.256h-40.057l.574-1.4c2.47-6.025.306-13.602-5.516-19.315l-3.417-3.355 1.439-4.165c2.58-7.466 1.612-17.251-2.555-25.859-2.504-5.173-10.043-12.914-16.271-16.707l-5.254-3.2.525-2.4c.29-1.32.491-5.46.451-9.2-.113-10.727-3.507-19.389-11.273-28.776l-2.666-3.223 1.467-.498c.807-.274 4.347-1.874 7.867-3.554 11.815-5.642 20.154-14.278 24.486-25.36l1.795-4.59.256-9.6.258-9.599 2.736.256c1.505.14 3.886-.34 5.293-1.068 1.84-.952 2.804-1.08 3.428-.455 1.352 1.352 5.91 1.023 9.18-.663 5.355-2.76 9.594-7.122 12.334-12.687l2.634-5.35v-16.033l-1.8-3.37c-.99-1.852-1.801-3.66-1.801-4.019s1.458-.513 3.24-.343c2.303.22 3.692-.1 4.8-1.104 3.392-3.07.925-7.055-6.839-11.049-2.2-1.131-4.83-2.717-5.844-3.523l-1.844-1.465 1.643-1.488c2.013-1.822 2.121-4.576.244-6.207-.77-.67-3.663-1.441-6.43-1.715-2.83-.28-6.97-1.417-9.466-2.598l-4.436-2.097-6.287-7.594c-7.635-9.22-11.02-11.81-17.64-13.506-8.485-2.174-19.143.329-24.915 5.85l-2.175 2.08-3.026-2.09c-9.413-6.505-20.764-9.61-35.424-9.69zm-2 9.768c10.512-.031 18.39 1.729 27.205 6.08l7.203 3.557 8.09 7.46c4.45 4.105 9.186 8.734 10.525 10.288l2.436 2.826-.784 3.974c-.43 2.187-.79 8.295-.802 13.575l-.022 9.6 1.558 5.37c.857 2.954 2.78 7.39 4.274 9.86 3.676 6.076 9.85 12.879 12.23 13.476l1.947.49.579 6.16c1.512 16.137-4.938 27.906-20.284 37.01-7.863 4.666-17.473 7.764-28.605 9.223-11.647 1.527-39.461 1.5-49.55-.049-9.49-1.456-19.613-4.616-25.833-8.064-8.852-4.907-19.95-16.802-17.267-18.506.493-.313 2.361-3.492 4.152-7.062 1.676-3.342 3.375-5.749 5.271-7.83-1.13-2.426.728-5.543 5.891-5.963.629-.052 1.26-.072 1.89-.07.29 0 .579.007.868.017 1.282-.575 2.477-1.158 4.03-1.713 4.068-1.455 8.628-3.148 10.134-3.764l2.736-1.12-1.137-.721c-.783-.496-.126-.723 2.108-.731 3.738-.014 9.161-3.087 12.541-7.103 4.247-5.048 4.992-13.147 1.834-19.93l-1.965-4.22.772-2.03c.424-1.116 1-4.485 1.279-7.486l.508-5.458-1.71-5.623c-2.272-7.483-6.39-12.627-12.876-16.084l-5.012-2.671 2.293-1.868c4.027-3.28 10.928-6.582 18.312-8.76l7.18-2.117zm60.58 3.36c6.495 0 11.63 3.694 19.11 13.745 3.842 5.166 10.05 10.142 14.304 11.467 1.099.343 4.273 3.08 7.055 6.084 2.78 3.004 6.832 6.612 9.001 8.018 2.17 1.406 3.946 2.992 3.946 3.523 0 1.02-7.012 4.363-9.149 4.363-1.831 0-1.605.41 2.149 3.915l3.398 3.173-.049 4.657c-.058 5.403-1.986 9.687-6.164 13.699l-2.754 2.644-.472-4.002c-.261-2.2-1.096-5.188-1.856-6.642l-1.38-2.645-1.097 4.282c-1.346 5.258-2.98 7.848-5.906 9.36-3.344 1.73-5.653 1.433-11.203-1.44-6.417-3.323-11.071-8.904-13.607-16.317l-1.875-5.484.078-9.2c.043-5.06.609-11.807 1.258-14.994l1.18-5.793-1.378-2.267c-.758-1.247-4.662-5.074-8.676-8.506-4.013-3.432-7.296-6.524-7.296-6.87 0-1.254 8.385-4.77 11.38-4.77zm-118.512.44c2.53.026 5.136.655 7.791 1.897 2.277 1.065 4.139 2.214 4.139 2.553 0 1.423-2.032 1.637-6.508.687l-4.76-1.01-3.172.952c-3.982 1.193-11.769 8.447-17.16 15.988-2.2 3.078-4.254 5.618-4.564 5.645-.837.073 1.395-5.837 4.16-11.016 5.568-10.43 12.483-15.772 20.074-15.695zm23.494 11.66c.797-.066 1.593.018 2.436.23 2.82.707 2.495 1.543-1.235 3.189-1.779.785-5.5 3.644-8.27 6.353-2.769 2.71-5.802 6.008-6.74 7.328l-1.705 2.4-.025-2.278c-.04-3.594 2.125-7.24 7.135-12.018 3.626-3.459 6.015-5.003 8.404-5.203zm-54.162 12.042c.616-.155.998-.15.998.049 0 1.623-4.29 7.886-7.209 10.523-1.715 1.55-4.63 3.587-6.476 4.53-4.808 2.452-9.514 4.007-9.514 3.144 0-.407 2.734-2.586 6.078-4.842 3.874-2.614 6.85-5.34 8.201-7.513 1.387-2.231 3.296-3.957 5.52-4.989.935-.434 1.786-.747 2.402-.902zm122.756 19.857c-15.385 0-22.57 18.287-11.838 30.13l3.281 3.62 4 1.096c7.47 2.048 15.065-.738 19.354-7.1 4.7-6.97 4.271-15.023-1.135-21.34-3.867-4.517-7.895-6.406-13.662-6.406zm-68.768 2.934c5.395 0 8.433 8.314 4.41 12.068-4.274 3.99-10.385 2.228-12.125-3.496-1.209-3.978 2.926-8.572 7.715-8.572zm65.81.267c5.994 0 9.019 6.991 5 11.557-.99 1.125-2.954 2.266-4.366 2.537l-2.569.492-2.431-2.431-2.434-2.432v-2.898c0-3.928 2.888-6.825 6.8-6.825zm-32.058 22.67c-4.616.41-8.952 2.036-10.69 4.245-3.66 4.652-1.085 12.01 5.17 14.777 1.969.87 3.579 1.871 3.579 2.225 0 1.124-4.616 7.063-6.543 8.417-4.729 3.324-11.69 3.204-15.982-.275l-1.876-1.52.93-2.468.93-2.467-1.377-1.701c-1.845-2.28-5.553-2.237-7.434.086-1.925 2.378-1.832 6.714.239 10.992 2.031 4.196 7.771 7.829 13.644 8.637l3.87.533v1.484c0 7.098 4.107 14.24 9.804 17.049 3.328 1.64 10.977 1.68 14.82.074 1.636-.683 3.963-2.19 5.172-3.347 2.47-2.366 5.402-9.446 5.402-13.041v-2.37h1.456c3.51 0 10.06-2.69 12.984-5.332 6.345-5.732 6.027-14.598-.598-16.615-1.237-.376-2.27-.025-3.478 1.184-1.67 1.67-1.767 3.269-.393 6.531l.576 1.367-2.673 1.63c-3.226 1.966-10.063 2.199-13.432.456-2.521-1.304-8.041-7.374-8.041-8.844 0-.514 1.457-1.59 3.238-2.394 1.782-.804 4.343-2.716 5.69-4.25l2.449-2.79-.422-3.134c-.729-5.432-4.636-8.307-12.39-9.117a24.227 24.227 0 0 0-4.624-.022zm1.373 33.188-.548 3.66c-.298 2.013-.3 4.637 0 5.83l.544 2.168.733-1.158c.403-.637.734-3.225.744-5.752l.012-4.596 3.662 2.795c2.014 1.537 3.987 2.795 4.385 2.795.398 0 .953.916 1.234 2.035.686 2.734-1.688 8.74-4.252 10.756-1.385 1.09-3.249 1.61-5.779 1.61h-3.736l-2.67-2.756-2.67-2.754-.373-3.885-.373-3.883 4.547-3.433zm36.254 39.922 4.627 5.031c2.64 2.87 5.997 7.767 7.817 11.402l3.187 6.371v6.31c0 3.468-.2 6.306-.445 6.306-.246 0-1.817-1.1-3.49-2.446-2.616-2.101-9.028-4.754-11.493-4.754-.426 0 .742 1.646 2.596 3.657 1.854 2.01 4.51 6.06 5.902 9l2.532 5.343-.068 10.8-.066 10.8-2.053 7.664c-3.108 11.603-5.118 15.738-8.53 17.541l-2.884 1.524 2.857.035c4.849.06 10.059 2.326 13.108 5.701l2.836 3.14v7.268l-1.88 1.88-1.878 1.878-3.922-.422c-2.156-.232-4.04-.523-4.187-.648-.148-.125-.466-1.712-.71-3.526-.273-2.037-1.062-3.732-2.064-4.433-2.04-1.429-3.217-.777-2.162 1.195.441.824.803 2.78.803 4.35v2.853h-7.278l-1.945-2.2c-1.07-1.21-2.94-3.603-4.152-5.317l-2.205-3.118.253-14.847.252-14.85 2.442-2.781c3.73-4.25 5.396-8.623 5.416-14.235.01-2.72-.366-5.962-.834-7.2-1.036-2.742-4.645-6.651-6.139-6.651h-1.09l.533 4.71c.737 6.508-1.097 11.714-6.02 17.098-2.109 2.305-5.408 4.993-7.333 5.971l-3.5 1.778-.643-6.381c-.69-6.859-2.17-12.114-3.535-12.569-1.045-.348-2.617 5.989-3.306 13.323l-.516 5.502-3.602-1.698c-4.498-2.118-9.707-7.402-12.029-12.197l-1.771-3.662.38-5.938.381-5.937h-1.408c-.775 0-2.31 1.07-3.412 2.379-5.708 6.783-4.59 17.64 2.666 25.904l2.395 2.727v30.349l-2.29 3.12c-1.258 1.715-3.24 4.132-4.406 5.369l-2.117 2.248-2.994-.248-2.994-.249-.258-2.257c-.142-1.241.114-3.326.57-4.635l.83-2.38-1.232-.474c-1.927-.739-3.555 1.537-4.164 5.823l-.557 3.924-3.593.226c-4.374.277-6.903-1.291-7.842-4.863-2.094-7.96 5.03-14.874 15.447-14.99l3.2-.036-2.401-1.052c-1.334-.585-3.159-2.438-4.11-4.17-4.123-7.512-8.277-24.734-8.287-34.348-.01-8.055 3.72-17.878 8.868-23.387l2.412-2.582h-2.067c-2.92 0-7.63 2.12-10.215 4.594l-2.2 2.106v-6.022c0-10.15 3.198-17.257 11.585-25.744l3.823-3.867 8.896 1.674c17.04 3.204 37.96 3.025 55.28-.471zm-4.539 7.02-.95 3.648c-.525 2.006-2.123 5.717-3.55 8.246l-2.594 4.598 1.5-.805c2.767-1.481 7.364-7.246 7.364-9.237 0-1.07-.398-2.96-.885-4.199zm-62.23.4c-1.23 0-.948 6.993.384 9.57.652 1.26 2.35 3.201 3.776 4.316 2.842 2.225 4.054 2.159 2.002-.109-1.71-1.89-5.362-10.197-5.362-12.2 0-.867-.36-1.577-.8-1.577zm-83.266 14.8.033 2.487c.018 1.368-1.21 5.179-2.73 8.469-3.133 6.78-4.674 14.686-3.926 20.14.279 2.037.319 3.703.09 3.703-.23 0-1.09-1.35-1.91-3l-1.49-3 .075-6.398c.095-7.882 2.273-14.013 6.725-18.936zm6.434 27.35 4.216 4.356c5.689 5.876 9.312 8.505 14.801 10.736 2.539 1.032 4.58 2.254 4.535 2.717a514.08 514.08 0 0 1-.199 2.04c-.176 1.761-1.473 1.49-7.97-1.671l-5.85-2.848-3.195-4.14c-1.758-2.278-3.904-5.726-4.768-7.665zm49.209 1.961c.924-.032 1.224.9 1.224 2.787 0 5.243 2.47 19.664 4.42 25.805 1.053 3.316 1.84 6.067 1.748 6.113-.092.046-1.609-.415-3.369-1.023-3.837-1.328-12.336-1.403-16.154-.143-1.514.5-2.963.7-3.219.443-.256-.256-.635-3.126-.844-6.376-.624-9.734 3.301-18.342 11.221-24.602 2.497-1.974 4.048-2.972 4.973-3.004zm117.47.045c.835-.053 2.291.92 4.782 2.894 4.865 3.856 9.076 9.766 10.59 14.862 1.344 4.526 1.546 11.424.421 14.383l-.76 1.998-2.986-.825c-1.642-.453-5.711-.65-9.04-.439-3.33.211-6.925.664-7.989 1.006l-1.934.623.604-1.53c2.431-6.16 5.265-22.152 5.265-29.706 0-2.132.213-3.213 1.047-3.266zm-68.246 29.273 1.399.577c.77.317 2.01.751 2.756.966.745.215 1.464 1.165 1.6 2.11l.245 1.718 3.397.247 3.394.244.914-2.006c.718-1.574 4.163-3.686 6.014-3.686.155 0 .281 6.48.281 14.4v14.401h-20V3.176Zm72.524 12.69c7.133.138 14.439 3.794 18.1 9.058 1.603 2.307 1.82 7.937.376 9.827-1.146 1.5-5.037 2.654-5.607 1.662-.21-.366-.64-2.106-.955-3.866-.623-3.481-2.41-6-4.256-6-.852 0-1.01.487-.584 1.8.321.99.76 3.15.977 4.8l.392 3h-10.168l.281-4.047c.408-5.886-.448-9.233-3.146-12.306l-2.389-2.72 1.028-.652c.564-.358 3.242-.609 5.95-.556zm-122.625.23c1.508.007 2.719.117 3.346.358l1.312.504-2.395 2.726c-3.225 3.674-4.464 7.74-3.826 12.551l.52 3.912h-10.455l.027-2.2c.016-1.21.543-3.1 1.172-4.2 1.534-2.685 1.477-3.2-.356-3.2-2.189 0-4.045 3.02-4.045 6.579 0 1.662-.33 3.021-.734 3.021-.404 0-1.213.157-1.8.35-2.07.68-4.513-1.067-5.446-3.895l-.944-2.855.877-2.658c1.013-3.07 4.815-6.933 8.848-8.993 2.167-1.107 9.373-2.019 13.898-2zm-161.444 20.852c-4.222 0-6.597 5.057-3.724 7.93 3.11 3.11 7.535 1.364 7.535-2.975 0-3.027-1.483-4.955-3.81-4.955zm27.807 0c-3.95 0-5.753 6.064-2.484 8.353.978.685 2.238 1.247 2.8 1.247 1.574 0 4.221-3.012 4.221-4.801 0-1.945-2.7-4.8-4.537-4.8zm382.676 0c-3.915 0-5.94 5.126-3.215 8.137 1.62 1.79 3.359 1.856 5.7.216 3.264-2.286 1.46-8.353-2.485-8.353zm-29.526.318c-1.2.143-2.338.82-3.082 2.21-1.197 2.236-.241 5.396 1.893 6.255.977.394 2.256.558 2.842.365.586-.192 1.338-.35 1.672-.35.333 0 1.026-.92 1.539-2.044 1.454-3.193-.98-5.975-3.657-6.406a4.354 4.354 0 0 0-1.207-.03zm64.909 30.696c-5.548-.002-11.809.819-15.987 2.207-13.266 4.406-25.212 18.5-28.265 33.345-1.552 7.545-1.564 9.91-.082 16.9 1.488 7.025 4.044 12.495 8.734 18.692 11.004 14.54 32.117 20.631 47.666 13.752l3.613-1.598 1.6 1.93c.88 1.062 2.32 2.332 3.2 2.82 3.79 2.106 9.422.307 11.806-3.771l1.222-2.092.196-16.4c.273-22.84.468-21.297-3.13-24.895l-3.107-3.105h-29.945l-2.66 1.261c-3.253 1.544-5.546 5.923-4.871 9.3 1.315 6.577 6.919 9.742 16.482 9.31l6.006-.272.258 2.25c.322 2.806-.964 4.399-5.057 6.26-4.128 1.878-11.62 1.921-16.732.096-5.633-2.011-10.961-7.118-13.627-13.059l-2.215-4.935.322-4.905c.615-9.316 5.985-17.512 13.936-21.271 5.254-2.484 13.002-2.602 17.515-.268 4.68 2.42 9.571 3.715 11.866 3.139 5.155-1.294 8.684-7.017 7.424-12.04-1.306-5.201-11.51-11.221-20.961-12.366-1.588-.193-3.358-.285-5.207-.285zm-400.36.298c-3.479-.176-7.071 1.44-9.197 4.926l-1.56 2.56v24.561c0 26.785.403 30.447 4.189 37.63 4.437 8.417 14.593 15.674 24.377 17.415 15.61 2.777 32.45-7.403 37.058-22.404l1.598-5.201.186-26 .183-26-1.564-2.586c-3.98-6.58-13.678-6.482-17.51.178-.625 1.086-1.056 10.1-1.326 27.751l-.399 26.143-1.673 2.258c-.92 1.241-2.901 3.098-4.4 4.127l-2.727 1.87-4.454-.31c-5.355-.374-8.892-2.614-11.164-7.066l-1.582-3.102-.02-23.832-.018-23.832-1.48-3.26c-1.671-3.679-5.037-5.648-8.516-5.826zm294.596.022c-6.264.248-10.638 1.48-16.574 4.326-10.76 5.157-19.441 16.407-22.772 29.508-2.368 9.315-.877 19.005 4.528 29.428 6.423 12.387 16.826 20.496 29.86 23.277 3.08.657 6.861 1.218 8.401 1.246 4.991.092 13.858-2.23 20-5.236 10.628-5.203 19.564-16.526 22.73-28.8 1.544-5.982 1.632-16.857.18-22.284-3.38-12.64-13.738-24.236-26.127-29.254l-4.384-1.776-8.82-.378c-2.636-.114-4.934-.14-7.022-.057zm-187.45.176c-8.99-.143-22.532.461-24.863 1.347-.972.37-2.324 1.752-3.005 3.069l-1.239 2.394v36.893c0 25.114.28 37.449.875 38.638.482.962 1.832 2.556 3 3.543 1.551 1.311 3.154 1.798 5.936 1.801l3.812.004 2.989-2.736 2.988-2.738.4-10.262.399-10.264 10-.443 10-.442 4.562-1.8c6.36-2.51 12.01-7.838 15.215-14.35l2.623-5.332V77.262l-2.236-4.553c-4.91-9.996-13.67-16.533-24.567-18.328-1.4-.23-3.892-.36-6.888-.408zm-190.308.09-2.637 1.11c-1.45.613-3.161 2.126-3.8 3.362l-1.163 2.248V134.225l1.817 2.718c.999 1.495 3.068 3.348 4.6 4.118 1.53.769 3.246 1.4 3.81 1.4 2.302.003 6.54-2.403 7.912-4.49l1.461-2.227.4-10.04.4-10.042 10-.457c10.915-.498 14.7-1.535 20.306-5.56 7.685-5.52 12.421-14.651 12.468-24.038.067-13.524-7.438-24.678-19.972-29.677l-4.4-1.754-15.6-.057zm258.64.4-2.72 2.719-2.719 2.72v73.84l1.21 2.34c.665 1.287 2.195 2.874 3.4 3.527l2.19 1.19 13.599.02c9.398.013 15.184-.353 18.726-1.188 22.363-5.272 37.026-29.462 31.658-52.229-3.444-14.611-13.172-25.695-27.177-30.966l-5.242-1.973h-16.463zm135.448 14.46c1.412.13 2.702.644 3.482 1.507 3.281 3.625 1.903 14.35-2.214 17.234-2.494 1.747-5.155 1.47-7.391-.766l-1.965-1.962v-4.463c0-5.166 1.57-9.51 3.881-10.746 1.263-.676 2.795-.932 4.207-.803zm-23.988.083 2.65.256 1.824 2.718 1.827 2.72V84.645l-1.659 2.108c-1.2 1.525-2.395 2.107-4.328 2.107h-2.672l-1.996-2.37c-2.456-2.92-3.332-7.619-2.203-11.811 1.13-4.194 3.213-5.998 6.557-5.674zm-357.7 5.457 7.4.002 7.401.004 2.557 1.558c3.558 2.17 5.309 5.18 5.309 9.123 0 3.915-1.943 7.298-5.145 8.954-1.498.774-4.774 1.158-9.88 1.158h-7.641v-10.4Zm168.801 0h14.702l2.449 1.683c3.894 2.678 5.644 5.54 5.644 9.258.01 3.693-2.094 7.212-5.273 8.846-1.133.582-5.127.993-9.723 1l-7.799.012v-10.4Zm90.952 0H2002.565l3.773 1.928c4.545 2.323 8.182 6.017 10.703 10.87l1.871 3.6-.01 6.801-.012 6.8-1.795 3.378c-2.453 4.615-6.919 8.905-11.277 10.834-2.352 1.04-6.117 1.75-10.67 2.01l-7.037.4V109.9c0-6.15-.237-16.64-.526-23.31zm140.28 11.16 1.985 1.982c3.644 3.645 1.86 11.038-3.535 14.641-4.207 2.81-7.705 2.397-9.563-1.13-1.29-2.451-1.162-3.757.774-7.876 1.806-3.842 4.524-6.21 8.123-7.08zm-61.84 1.016c3.13-.653 7.244 1.327 9.74 6.482 2.097 4.333 2.119 7.291.067 9.342-3.9 3.901-11.849.103-13.63-6.514-1.448-5.374.695-8.658 3.824-9.31zm30.747 8.328 3.73.957 3.73.955 3.706 3.943c4.238 4.512 7.894 11.292 7.894 14.637 0 3.615-2.067 6.769-5.093 7.768l-2.723.898-5.222-1.31-5.223-1.313-5.627 1.28c-6.81 1.548-7.892 1.553-10.701.029-4.526-2.456-3.997-9.204 1.345-17.166 4.251-6.336 6.593-8.404 11.022-9.73zm-35.74 67.342-4.371 2.304-4.373 2.305-2.227 4.264c-2.654 5.08-2.897 10.133-.715 14.937 1.674 3.686 6.508 8.043 10.086 9.094 11.78 3.458 23.143-5.785 21.734-17.682-.964-8.144-7.178-14.092-15.48-14.816zm-132.131.154c-2.803 0-3.469 2.345-3.469 12.226 0 12.885 1.63 16.736 8.4 19.862 6.577 3.035 14.609 1 18.053-4.574l1.9-3.075.319-10.216.318-10.217-1.314-2.004c-.722-1.102-1.953-2.002-2.734-2.002-2.876 0-3.342 1.623-3.342 11.65v9.733l-1.586 2.02c-1.998 2.54-5.183 3.37-8.174 2.13-3.753-1.555-4.639-4.331-4.639-14.535 0-9.621-.468-10.998-3.732-10.998zm96.72.049a3.125 3.125 0 0 0-2.43.91c-1.352 1.353-1.352 30.326 0 31.68 1.489 1.488 3.627 1.137 4.997-.819l1.244-1.777v-27.529l-1.256-1.258c-.748-.749-1.662-1.154-2.554-1.207zm-174.806.054c-1.311.13-2.552.464-3.621 1.02-5.491 2.857-7.84 8.482-5.463 13.08 1.271 2.458 3.246 3.46 11.695 5.941 3.783 1.11 4.939 2.968 3.174 5.094-1.384 1.668-5.81 1.43-8.185-.44-2.625-2.064-6.654-2.109-7.737-.085l-.81 1.515 1.71 2.176c.942 1.197 2.825 2.853 4.184 3.682 5.305 3.235 15.092.898 17.748-4.238 1.483-2.867 1.429-7.857-.111-10.055-.816-1.165-3.53-2.463-8-3.826l-6.766-2.065v-1.39c0-.766.431-1.826.96-2.354 1.161-1.162 5.95-1.275 6.64-.158.835 1.35 4.072.888 5.6-.8l1.447-1.6-1.524-1.711c-2.442-2.742-7.007-4.177-10.941-3.786zm129.305.057-5.487.238-.218 15.944c-.148 10.788.063 16.114.648 16.476.871.539 11.05.236 15.639-.465 3.313-.506 9.004-5.506 10.822-9.51 4.2-9.248-1.393-19.905-11.555-22.015-2.398-.498-6.831-.8-9.85-.668zm-85.026.639c-13.26 0-14.46.31-14.46 3.732 0 2.444 2.686 3.734 6.81 3.27l3.379-.381.498 5.289c.275 2.91.506 8.369.506 12.13 0 4.247.37 7.204.966 7.8.529.527 1.563.96 2.301.96 2.931 0 3.453-2.13 3.496-14.273l.043-11.727 4.635-.242 4.637-.24.88-1.936.884-1.935-1.016-1.223-1.016-1.224zm171.037 6.207 2.944 1.818c5.707 3.528 6.356 10.055 1.43 14.38-4.708 4.134-11.559 2.8-14.2-2.767l-1.34-2.82.825-3.06c1.042-3.873 3.805-6.49 7.478-7.086zm-80.867.64c2.64.18 6.1 1.204 7.399 2.38.87.788 1.981 2.763 2.468 4.388l.885 2.955-1.398 2.95c-.77 1.622-2.414 3.474-3.653 4.114-1.238.641-3.982 1.166-6.093 1.166l-3.84.002.25-8.72.248-8.721 1.478-.387c.588-.153 1.376-.187 2.256-.127zm-228.23 5.953c-30.252 0-46.64.285-47.655.829-1.936 1.036-2.026 4.413-.146 5.507.906.528 17.821.825 47.943.84l46.543.024 1.256-1.256c1.716-1.716 1.581-4.114-.289-5.115-1.015-.544-17.4-.829-47.652-.829zm373.724 0-1.463 1.325c-1.794 1.623-1.853 2.97-.205 4.619l1.256 1.256H2231.197l1.256-1.256c1.497-1.497 1.626-3.656.297-4.985l-.959-.959h-50.777z" transform="matrix(.26458 0 0 .26458 -451.53 65.785)"/>
  <path style="fill:#000001" d="M1971.102-248.39c-5.728.156-11.365.977-16.588 2.507-4.038 1.183-14.066 5.797-18.06 8.31l-1.663 1.046-3.424-2.479c-10.096-7.313-24.85-7.683-33.139-.828-1.696 1.403-5.145 5.167-7.666 8.363-7.662 9.719-12.997 13.084-20.787 13.116-6.718.027-9.61 4.168-5.552 7.949l1.71 1.592-3.732 2.238c-9.705 5.817-10.975 6.764-11.726 8.74l-.805 2.113 1.307 1.994 1.306 1.995 3.86-.457 3.859-.46-1.992 3.967c-3.964 7.892-3.214 19.355 1.781 27.268 5.572 8.827 16.58 15.3 20.076 11.805.632-.632 1.327-.632 2.508 0 .898.48 3.216.873 5.152.873h3.522l-.361 6.226c-.448 7.728.722 13.558 4.144 20.67 5.24 10.888 13.33 18.596 25.281 24.086 3.3 1.516 6.135 2.89 6.301 3.055.166.164-1.11 2.023-2.836 4.13-4.386 5.358-5.342 7.03-7.916 13.844l-2.262 5.989-.012 10.09-.01 10.09-4.033 1.892c-3.957 1.857-14.283 11.164-15.008 13.527l-.369 1.201-5.04-2.4c-9.232-4.394-16.563-13.816-18.436-23.695-1.127-5.94-.976-10.606.586-18.143 1.582-7.637 1.108-9.219-2.887-9.615-3.545-.351-8.846 2.928-15.283 9.455-9.125 9.253-13.598 20.055-13.598 32.84 0 8.196 1.28 12.91 5.244 19.334l2.932 4.75-1.688 1.183c-2.331 1.634-2.115 3.886.81 8.446 3.18 4.955 10.14 11.2 16.302 14.63 4.93 2.745 14.435 6.015 17.484 6.014h1.717v13.6h-37l-37 .002-1.6 1.6c-1.883 1.883-2.038 3.894-.465 6.046l1.135 1.553 47.465.475c26.106.26 92.748.385 148.092.275l100.625-.201 1.974-1.293c2.587-1.695 2.689-5.465.196-7.21l-1.778-1.245h-39.015l.54-1.4c2.318-5.991.4-12.977-5.138-18.723l-3.9-4.047 1.142-3.236c5.499-15.584-2.706-34.316-19.152-43.725l-4.28-2.45.391-8.083c.242-5.023.01-9.8-.619-12.611-1.327-5.96-5.447-14.022-9.53-18.649-1.806-2.047-3.282-4.033-3.282-4.412 0-.38 1.885-1.36 4.19-2.178 6.717-2.386 12.203-5.86 18.411-11.658l5.797-5.416 2.922-5.908c3.653-7.39 4.993-14.04 4.51-22.383l-.377-6.49 2.49.404c1.369.222 3.917-.087 5.662-.687 2.035-.7 3.45-.813 3.943-.319 1.308 1.308 5.303.856 9.065-1.023 8.544-4.267 14.36-13.48 15.135-23.973l.43-5.834-1.727-4.8c-.95-2.64-1.935-5.441-2.19-6.225l-.463-1.426 3.213.514 3.211.513 1.688-1.687c.928-.929 1.69-2.18 1.69-2.781 0-2.091-3.394-5.381-7.886-7.649-2.486-1.255-5.387-2.984-6.447-3.842l-1.926-1.56 1.729-1.729c2.006-2.006 2.155-3.24.637-5.316-.794-1.086-2.63-1.66-6.713-2.096-7.668-.82-12.659-3.503-17.932-9.644-9.773-11.382-11.965-13.394-16.389-15.05-8.98-3.36-20.587-1.652-27.718 4.079l-3.176 2.553-1.291-.922c-9.07-6.482-21.77-10.3-34.553-10.922a75.677 75.677 0 0 0-5.744-.063zm2.208 9.74c19.076.01 32.224 6.395 49.092 23.837l5.891 6.094-.531 2.19c-.293 1.205-.735 7.052-.979 12.992l-.443 10.799 1.353 5.2c.744 2.86 2.416 7.203 3.717 9.651 3.391 6.383 9.813 14.023 12.606 14.996l2.378.828.565 3.766c.991 6.61-.052 16.552-2.232 21.283-6.429 13.947-23.14 24.154-45.016 27.49-7.88 1.203-30.588 2.1-38.4 1.518-26.039-1.94-42.126-8.404-52.928-21.267-5.471-6.515-8.858-16.524-8.041-23.768l.408-3.605 2.383-2.047c1.311-1.125 4.357-4.926 6.767-8.446 8.684-12.682 10.172-17.083 11.094-32.798.82-13.967 1.38-18.59 2.522-20.801 2.925-5.665 10.975-12.4 14.82-12.4h1.951l-1.775-1.438-1.776-1.438 2.883-2.199c3.999-3.05 13.48-7.414 19.691-9.062 3.43-.91 8.198-1.378 14-1.375zm61.106 3.48c4.87.405 9.63 3.17 13.541 8.094 7.505 9.447 10.87 12.887 14.826 15.156 2.27 1.302 4.75 2.371 5.508 2.375.759.004 1.918 1.049 2.576 2.322 1.501 2.903 9.463 10.108 13.443 12.166 1.65.853 3 1.86 3 2.237 0 1.382-2.93 2.924-9.945 5.234l-1.545.51 2.516 1.77c5.207 3.661 6.323 9.8 3.039 16.72-1.265 2.666-6.52 8.649-7.598 8.649-.256 0-.526-1.58-.601-3.512-.075-1.932-.835-4.874-1.69-6.54l-1.552-3.027-.551 3.68c-.638 4.256-3.255 8.537-6.096 9.975-6.731 3.406-18.085-3.341-23.455-13.938-3.873-7.643-4.644-17.916-2.39-31.838l1.33-8.217-1.932-2.39c-1.062-1.315-4.915-5.002-8.563-8.194-3.648-3.191-6.502-6.191-6.343-6.666.158-.474 1.848-1.69 3.757-2.699 2.842-1.503 5.803-2.11 8.725-1.867zm-120.305.074c3.682.008 12 3.123 12 4.494 0 .508-3.873 4.237-8.607 8.286-5.054 4.322-8.811 8.164-9.098 9.306-.268 1.07-.037 5.26.514 9.309.55 4.05.854 11.324.674 16.164l-.328 8.799-1.979 3.965c-2.928 5.871-9.937 12.681-14.719 14.3-4.195 1.42-5.658 1.547-7.79.678-3.122-1.272-6.268-7.626-6.268-12.662 0-6.419-3.176-.638-3.928 7.15l-.47 4.88-3.286-3.737c-1.982-2.255-3.841-5.509-4.69-8.205l-1.405-4.467 1.105-2.951 1.107-2.951 4.58-2.4c2.52-1.32 4.585-2.645 4.586-2.944 0-.843-8.658-2.437-9.71-1.787-.607.375-.72.23-.323-.414.445-.72-.01-.92-1.66-.725-3.881.46-3.379-2.098 1.004-5.107 5.426-3.726 10.758-8.694 11.54-10.752.65-1.707 5.234-4.221 9.769-5.356l2.218-.554.657 1.773.656 1.774.58-2.354c.945-3.83 5.744-11.817 9.83-16.361 4.31-4.795 8.758-7.16 13.441-7.15zm24.41 43.147c-1.935-.006-3.78.265-5.359.86-2.68 1.008-7.942 5.91-9.473 8.825-1.876 3.572-2.23 9.54-.802 13.526 2.551 7.121 6.831 11.429 12.77 12.85 4.15.992 7.618.81 10.294-.544 11.94-6.036 15.23-18.614 7.656-29.252-2.661-3.737-9.28-6.247-15.085-6.265zm67.526.732c-3.45.085-6.931 1.272-9.992 3.848-9.158 7.705-7.438 24.234 3.1 29.799 1.923 1.016 4.595 1.574 7.648 1.597l4.691.036 3.71-2.047c4.803-2.652 7.82-6.684 8.855-11.83 2.407-11.976-7.662-21.657-18.012-21.403zm-67.027 2.338 2.459 2.068c1.352 1.138 2.697 3.025 2.99 4.194.73 2.91-.924 6.516-3.631 7.916-1.236.64-2.896 1.15-3.688 1.135-3.629-.072-7.352-3.97-7.412-7.76-.039-2.47 3.863-6.518 6.826-7.084zm61.683.621h6.016l1.896 2.205c2.726 3.17 2.55 7.182-.443 10.176-2.939 2.939-6.234 3.075-9.145.377l-2.117-1.961v-3.193c0-2.207.586-3.876 1.897-5.399zm-26.982 23.268-6.055.039-3.351 1.709c-3.912 1.995-5.004 3.69-5.004 7.758v2.957l3.494 3.494c1.922 1.922 4.242 3.496 5.154 3.496 2.628 0 2.692 1.17.246 4.5-4.76 6.48-9.103 8.81-14.826 7.951-1.955-.293-4.506-1.28-5.666-2.193l-2.11-1.658.53-3.13c.656-3.885-.51-5.47-4.022-5.47-2.987 0-4.186 1.13-4.88 4.603-.974 4.87 2.807 11.675 7.974 14.35 1.378.713 4.486 1.51 6.906 1.772l4.399.474.469 4.8c.74 7.605 3.929 12.197 10.056 14.483 2.05.765 4.812 1.014 8.276.744l5.199-.404 3.14-2.21c3.63-2.557 6.542-7.809 7.274-13.114l.51-3.7 5.261-1.298c9.514-2.348 13.518-7.084 13.104-15.5-.127-2.586-2.882-5-5.707-5h-2.42l-.828 2.176c-.588 1.545-.563 2.761.086 4.185l.914 2.006-2.07 1.78c-2.478 2.13-6.605 3.028-10.536 2.29-3.149-.59-9.317-5.738-11.172-9.324l-1.12-2.17 2.511-.875c4.253-1.482 7.733-4.68 8.736-8.029l.936-3.12-1.531-2.66c-2.29-3.979-6.614-5.759-13.877-5.712zm-1.283 33.054c.26.003.498 2.43.529 5.399.065 6.206 1.394 4.775 1.488-1.602.06-3.994.742-4.662 2.545-2.49.597.72 2.443 2.163 4.1 3.21l3.011 1.901v2.59c0 3.275-2.204 7.646-4.799 9.524-6.86 4.966-15.199-.261-15.199-9.534 0-1.87.294-3.4.655-3.4.36 0 2.128-1.26 3.927-2.8 1.798-1.54 3.48-2.796 3.742-2.798zm-34.02 39.657 5.445.994c13.7 2.5 16.316 2.687 32.94 2.363 12.313-.24 19.485-.76 24.853-1.805l7.545-1.466 4.97 5.246c3.072 3.24 6.109 7.55 7.948 11.271l2.979 6.024-.027 6.123c-.015 3.368-.238 6.337-.496 6.595-.259.259-1.28-.274-2.268-1.183-2.563-2.357-7.859-5.022-9.982-5.022h-1.81l3.604 4.897c2.242 3.045 4.247 7.01 5.303 10.488l1.697 5.592-.439 9.713c-.685 15.156-5.372 30.276-10.316 33.283l-2.33 1.418 3.955.379c5.815.559 11.107 3.941 13.054 8.344l1.57 3.55-.88 2.672c-1.406 4.26-3.208 5.391-8.135 5.11l-4.287-.245-.422-3.6c-.48-4.112-1.21-5.6-2.75-5.6h-1.076l.435 4.8.434 4.8h-6.711l-2.445-2.6c-1.345-1.43-3.486-4.2-4.756-6.157l-2.309-3.557v-27.816l2.77-3.38c5.688-6.943 7.56-15.282 4.871-21.716-1.122-2.684-4.811-6.773-6.111-6.773-.35 0-.426 2.514-.168 5.588l.468 5.59-2.554 5.19c-1.61 3.27-3.799 6.196-5.916 7.911-3.415 2.766-7.856 5.32-9.248 5.32-.422 0-.79-2.58-.82-5.736-.058-6.109-2.162-14.114-3.39-12.887-.896.897-3.103 12.197-3.103 15.893 0 1.501-.27 2.727-.6 2.723-.33-.004-2.427-1.057-4.662-2.338-4.592-2.634-8.289-6.518-10.921-11.477l-1.793-3.379.059-6.199c.032-3.41-.27-6.2-.672-6.2-.403 0-1.752 1.018-2.996 2.263-5.84 5.84-5.016 16.365 1.99 25.386l3.596 4.631V8.914l-1.192 2.854c-.656 1.57-2.686 4.638-4.51 6.816l-3.314 3.959-3.291-.24-3.293-.24-.246-2.967c-.136-1.632.128-3.665.586-4.52l.832-1.555-1.059-.406c-2.269-.87-4.513 2.858-4.513 7.498v2.348h-8.52l-1.728-1.838c-2.601-2.768-2.974-6.175-1.133-10.336 2.066-4.672 5.894-7.041 12.31-7.623l4.887-.443-2.107-1.106c-5.862-3.07-12.447-26.48-11.508-40.906.478-7.355 2.743-13.526 7.049-19.215l3.126-4.133-1.388.008c-1.98.011-9.184 3.492-10.487 5.067-2.24 2.708-2.748 1.466-2.255-5.514l.482-6.842 2.81-5.846c1.713-3.56 4.68-7.833 7.59-10.93zm4.088 7.941c-1.025.636-1.027 5.286 0 7.988.438 1.152 1.948 3.147 3.355 4.432 1.408 1.285 2.664 2.23 2.793 2.102.13-.13-1.01-2.548-2.535-5.377-1.524-2.83-2.78-6.157-2.79-7.393-.01-1.29-.36-2.036-.82-1.752zm62.65 1.963c-.441-.212-1.387 1.726-3.695 6.678l-2.91 6.238 2.412-1.717c3.555-2.531 4.849-4.955 4.629-8.681-.088-1.489-.17-2.39-.436-2.518zM1858.91-70.738l.522 6.818c.362 4.754 1.278 8.786 3.023 13.31l2.502 6.49 4.97 5.425c5.43 5.924 11.35 10.121 16.548 11.726l3.34 1.031-.55 2c-.301 1.1-.711 4.584-.912 7.743l-.365 5.744-2.459.855c-3.134 1.093-11.37.91-17.238-.383-2.127-.468-4.98-3.103-4.98-4.6 0-.57 1.224-1.481 2.72-2.023 1.497-.54 3.145-1.492 3.66-2.113l.938-1.129-3.686-1.68c-2.25-1.025-3.473-2.026-3.136-2.57.303-.49.194-.67-.242-.4-1 .618-4.262-1.61-4.23-2.889.014-.525.39-.325.839.445.448.77 1.189 1.4 1.644 1.4.456 0-.642-1.67-2.44-3.712-1.796-2.042-3.267-4.022-3.267-4.4 0-.378-.63-.683-1.4-.676-.864.007-1.063.237-.52.6.485.323 1.347 1.487 1.916 2.587l1.038 2-1.782-1.58c-.978-.87-2.88-3.865-4.226-6.656l-2.447-5.074.43-6.145c.517-7.425 2.165-11.915 6.51-17.744zm56.426 29.2c.322 0 .84 2.79 1.15 6.2.838 9.207 2.625 18.817 4.512 24.27.92 2.66 1.547 4.933 1.393 5.052-.155.12-1.901-.289-3.881-.908-3.528-1.102-13.26-.973-17.348.23l-1.748.516-.543-2.885c-.298-1.586-.4-5.314-.228-8.28.358-6.186 2.376-10.965 6.824-16.16 2.825-3.301 8.64-8.034 9.869-8.034zm116.808.722c.616-.022 1.923.686 3.926 2.125 5.175 3.718 7.758 6.837 10.563 12.753l2.277 4.8-.012 5.6c-.01 3.08-.235 6.438-.51 7.464l-.498 1.865-1.689-.521c-.93-.288-4.267-.722-7.416-.965-4.134-.32-6.773-.086-9.49.84l-3.764 1.28.404-1.78c.223-.98 1.178-4.662 2.121-8.182.944-3.52 2.094-10.361 2.555-15.201.461-4.84.978-9.256 1.149-9.813.052-.169.18-.258.384-.265zm-67.271 29.677c1.92 0 4.838 2 4.838 3.315 0 2.982 7.426 3.108 7.85.133.17-1.195 1.143-2.05 3.052-2.68 1.542-.51 2.925-.8 3.072-.647.147.154.394 6.76.547 14.68l.278 14.4-1.6.043c-.88.024-5.47-.077-10.2-.226l-8.599-.272V3.234c0-8.575.307-14.373.762-14.373zm69.031 12.305c2.628-.36 5.253-.021 9.264 1.197l5.598 1.701 3.62 3.52c4.143 4.025 5.329 7.78 3.598 11.39-1.156 2.414-4.471 4.044-6.58 3.235-.878-.337-1.293-1.474-1.293-3.543 0-3.32-1.814-6.604-3.646-6.604-1.31 0-1.569 2.048-.354 2.8.44.271.8 2.094.8 4.048v3.553H2034.661l.426-4.684c.492-5.424-.621-9.496-3.545-12.97-1.117-1.328-1.868-2.578-1.668-2.778.2-.2 2.012-.589 4.03-.865zm-121.248.002c2.721.076 4.972.513 5.44 1.27.225.364-.665 1.81-1.977 3.214-3.13 3.352-4.425 8.148-3.404 12.621l.78 3.413-1.757.44c-.965.243-3.346.327-5.29.188l-3.538-.252-.254-2.209c-.14-1.215.31-3.34 1-4.722 1.517-3.04 1.519-3.069.207-3.069-2.39 0-4.063 2.267-4.504 6.1l-.449 3.9-2.582.249-2.58.25-1.615-2.649c-2.128-3.49-2.042-5.793.37-9.91 2.35-4.007 5.479-6.1 11.894-7.951 2.348-.678 5.539-.96 8.26-.883zm-160.34 21.295c-3.57 0-5.587 5.704-2.949 8.342 1.62 1.619 3.444 1.596 5.281-.067 2.775-2.51 1.15-8.275-2.332-8.275zm410.457 0c-3.95 0-5.753 6.064-2.484 8.353.978.685 2.237 1.247 2.799 1.247 1.573 0 4.222-3.012 4.222-4.801 0-1.945-2.699-4.8-4.537-4.8zm-383.03.392a4.406 4.406 0 0 0-1.352.471c-1.899 1.016-2.656 4.139-1.52 6.262.647 1.208 1.673 1.674 3.688 1.674h2.79l.762-2c1.363-3.584-1.26-6.928-4.369-6.407zm354.626.407c-1.487 0-2.654.661-3.531 2l-1.31 2 1.31 2c.877 1.338 2.044 2 3.531 2 2.779 0 4.14-1.316 4.14-4s-1.361-4-4.14-4zm-37.24 30.363c-4.117.002-8.324.539-12.549 1.62-14.31 3.66-23.957 12.66-29.445 27.472l-2.426 6.545-.01 6.8c-.015 12.04 4.197 22.21 13.063 31.543 7.89 8.307 15.396 12.007 26.748 13.18 20.91 2.162 40.597-11.998 45.988-33.078 4.026-15.744.54-29.23-10.582-40.94l-5.633-5.93-5.688-2.788c-5.999-2.943-12.605-4.427-19.466-4.424Zm97.018.201c-5.93.273-10.75 1.58-16.153 4.233-16.739 8.22-26.567 26.776-24.154 45.603 1.58 12.322 11.15 26.101 22.142 31.877 12.066 6.34 23.805 7.012 35.887 2.053l2.56-1.049 1.75 2.227c.964 1.224 2.51 2.532 3.44 2.908 2.838 1.146 4.93.867 7.758-1.04 4.515-3.042 4.707-4.005 4.717-23.777l.01-18-1.563-2.56c-.859-1.409-2.68-3.142-4.05-3.85l-2.49-1.287-14.69.25-14.69.248-2.255 1.676c-1.241.922-2.704 3.011-3.25 4.642l-.993 2.965 1.084 2.596c.597 1.427 2.241 3.568 3.655 4.758l2.57 2.164h7.94c5.781 0 7.954.272 8.003 1 .037.55.156 1.787.264 2.75.386 3.447-7.01 6.91-14.768 6.914-8.988.005-18.31-6.56-21.527-15.156-4.415-11.801.697-25.014 11.785-30.46l4.58-2.25 5.6.026 5.6.025 4.208 2.194c7.865 4.097 14.898 2.5 16.997-3.858l.92-2.787-.92-2.787c-2.154-6.525-11.859-11.534-23.606-12.187-2.285-.127-4.383-.152-6.36-.06zm-395.99.205c-3.772-.374-7.545 1.451-9.475 5.23l-1.43 2.801.252 26.4.252 26.4 1.836 4.6c3.599 9.025 11.19 16.207 20.947 19.815l4.371 1.618 7.602-.25 7.6-.25 4.744-2.188c9.391-4.332 15.183-10.911 18.12-20.582l1.598-5.258-.232-26.619-.23-26.62-2.565-2.29c-4.774-4.264-11.92-3.642-15.174 1.32l-1.463 2.23-.23 25.237c-.136 14.795-.573 26.104-1.055 27.332-1.175 2.993-5.421 6.759-8.861 7.855-5.448 1.737-11.522-1.039-15.16-6.925l-1.823-2.948.215-12.039c.119-6.62-.037-18.154-.346-25.629l-.56-13.59-2.547-2.546c-1.863-1.863-4.124-2.88-6.387-3.104zm177.34.293-2.48 1.283c-1.363.706-3.025 2.339-3.693 3.63l-1.213 2.345v71.438l1.256 2.648c.692 1.457 2.402 3.214 3.801 3.904l2.543 1.254 13.084.018c18.742.026 27.405-2.675 36.768-11.46 22.858-21.447 17.335-58.103-10.78-71.527l-6.273-2.996-16.506-.267zm-262.436.028-2.676 2.392-2.674 2.393.055 37.863.055 37.861.996 1.844c.548 1.014 2.143 2.542 3.545 3.397 3.02 1.841 8.317 2.035 10.668.388.92-.645 2.26-2.41 2.977-3.922l1.304-2.748v-18.399l10.201-.298 10.2-.3 4.978-2.28c13.255-6.07 20.59-21.634 16.656-35.342-2.719-9.474-7.886-15.709-16.435-19.832l-5.2-2.508-17.326-.254zm176.267.205c-8.666.192-10.498 1.215-11.93 4.232l-1.287 2.715v72.316l1.204 2.54c.662 1.395 2.192 3.15 3.4 3.898h.01c4.517 2.8 10.932 1.115 13.828-3.635l1.562-2.56v-18.588l10.2-.387 10.199-.385 5.285-2.418c9.226-4.22 14.498-10.563 16.72-20.115 3.168-13.612-4.27-28.6-17.39-35.043l-4.615-2.266-16-.263c-4.646-.077-8.293-.106-11.182-.041zm195.727 13.539 2.172 1.123c6.007 3.106 6.35 17.413.47 19.648-2.614.994-2.768.988-5.101-.217-6.44-3.323-6.404-17.467.05-19.716zm22.785.35c3.813-.35 6.67 3.32 6.67 9.046 0 4.513-.758 6.629-3.438 9.57-2.042 2.243-6.17 2.402-8.062.311-4.38-4.84-2.417-16.414 3.142-18.527a6.387 6.387 0 0 1 1.688-.4zm-204.67 5.35c3.643.026 7.618.768 9.934 1.966 1.217.63 3.16 2.575 4.316 4.322l2.102 3.176-.446 3.326c-.59 4.394-4.002 7.828-8.672 8.73-4.226.817-13.02.953-13.76.213-.293-.293-.533-5.132-.533-10.752V74.561l3.6-.541a22.555 22.555 0 0 1 3.459-.223zm90.006.028c7.91-.344 13.381 1.469 18.295 6.065 5.342 4.997 7.208 8.858 7.666 15.87.525 8.038-1.274 13.062-6.55 18.305-2.893 2.877-5.322 4.452-8.368 5.426-2.56.819-6.842 1.371-10.612 1.371h-6.32l.211-23.398.213-23.4zm-265.465.239h14.529l3.02 2.304c3.129 2.39 5.252 6.248 5.252 9.551 0 2.767-3.2 7.126-6.416 8.742-2.948 1.481-13.833 1.982-15.81.727l-1.024-.65.224-10.337zm338.402 11.6c2.424 0 6.038 2.467 8.414 5.747 2.862 3.951 3.287 9.187.92 11.328-2.047 1.853-7.424 1.716-9.927-.254-4.686-3.685-6.065-11.439-2.645-14.859 1.08-1.08 2.537-1.963 3.238-1.963zm60.055.083c1.345-.022 2.542.515 3.635 1.608l1.691 1.69-.35 4.202c-.365 4.402-2.435 7.956-5.7 9.787-2.952 1.655-7.47 1.273-8.887-.75-2.721-3.884-.194-11.24 5.084-14.797 1.688-1.137 3.182-1.718 4.527-1.74zm-30.021 9.402c5.249-.262 10.204 2.932 14.695 9.512l3.932 5.762.363 4.385.365 4.386-2.533 2.534-2.533 2.53-4.164-.605c-2.29-.333-6.684-.6-9.764-.595-3.08.005-7.644.276-10.143.601l-4.54.592-2.06-2.057-2.056-2.058.01-3.836c.012-6.14 7.16-16.92 13.086-19.733 1.808-.858 3.59-1.33 5.34-1.418zm-146.14 67.315c-.54 0-1.548.564-2.24 1.256l-1.257 1.258v19.744l-2.461 2.07c-3.334 2.805-6.619 2.714-9.6-.268l-2.338-2.337V164.258l-1.19-.987c-.681-.566-2.047-.773-3.2-.484l-2.01.506v23.732l1.799 2.659c.99 1.462 3.42 3.527 5.4 4.587l3.6 1.928 4.353-.428c4.801-.47 7.515-2.084 10.248-6.101l1.8-2.645v-11.322c0-11.252-.436-13.24-2.903-13.24zm74.903.008c-.445 0-.89.16-1.4.482l-1.399.881-.218 15.111-.22 15.112 1.372 1.002c.754.551 1.798 1.004 2.32 1.004 2.441 0 2.78-2.278 2.563-17.217l-.217-15.012-1.4-.88c-.51-.322-.956-.483-1.4-.483zm-172.984.078c-1.797-.064-3.517.376-5.358 1.314-3.978 2.03-6.045 5.226-5.941 9.194l.088 3.318 2.455 2.195c1.633 1.46 4.1 2.518 7.357 3.159 4.48.881 7.184 2.326 7.184 3.838 0 3.505-6.78 4.719-9.914 1.775-2.883-2.708-7.685-2.048-7.685 1.057 0 1.989 3.383 5.568 6.398 6.767 7.73 3.072 17.6-2.19 17.6-9.387 0-5.213-2.933-7.792-11.018-9.693-2.564-.603-4.53-1.58-5.018-2.49l-.802-1.496 1.619-1.62c1.947-1.947 2.312-1.968 6.34-.357l3.152 1.262 1.711-.916c2.767-1.481 1.761-4.131-2.355-6.207-2.143-1.08-4.014-1.649-5.811-1.713zm211.246.123c-6.525.369-13.284 5.34-15.004 11.533-1.317 4.744-1.032 7.593 1.21 12.094 2.194 4.401 5.113 6.97 9.84 8.66 4.362 1.559 7.35 1.316 11.932-.967 4.737-2.36 6.693-4.529 8.608-9.543 3.502-9.17-3.398-19.976-13.818-21.642a12.915 12.915 0 0 0-2.768-.135zm-167.941.59c-12.403 0-15.12.563-15.12 3.13 0 2.272 1.653 3.152 6.424 3.423l4.375.248.213 12 .213 12 1.34 1c.737.55 1.74 1 2.228 1 2.394 0 2.807-2.086 2.807-14.16v-12.24h9.543l.857-1.6c.609-1.137.609-2.065 0-3.202l-.857-1.6zm78.48 0v15.467c0 8.506.24 15.706.533 16 .293.293 3.804.525 7.8.515 8.61-.02 12.531-1.46 16.243-5.963 6.758-8.198 4.373-20.286-4.826-24.462l-3.35-1.522-8.2-.018zm90.404 6.4h3.082l2.803 2.643c4.42 4.168 4.804 8.674 1.106 12.96-3.1 3.593-9.869 3.99-13.409.786-.792-.717-1.884-2.377-2.427-3.688l-.987-2.384.928-3.1c1.266-4.224 4.959-7.217 8.904-7.217zm-80.25.157c1.967-.143 4.382.287 5.836 1.039 2.93 1.515 5.608 5.56 5.608 8.486 0 3.095-3.244 7.376-6.426 8.473-3.746 1.29-7.931 1.287-8.428-.008-.223-.58-.3-4.81-.174-9.4l.229-8.347zm-180.668 6.244-39.744.093c-21.858.052-43.342.322-47.742.6l-8 .506v4.8l6.8.452c3.74.248 24.99.517 47.221.6l40.422.148 1.78-1.244c2.093-1.467 2.257-2.961.52-4.7zm377.846.047c-25.117-.052-50.222.158-51.195.68-2.378 1.272-2.687 3.12-.832 4.976l1.668 1.668 50.189-.285 50.192-.288 1.324-1.097c1.729-1.435 1.688-3.858-.078-4.766-1.021-.525-26.15-.837-51.268-.888z" transform="matrix(.26458 0 0 .26458 -451.53 65.785)"/>
</svg>
